<?xml version="1.0" encoding="UTF-8"?>
<!DOCTYPE svg PUBLIC "-//W3C//DTD SVG 1.1//EN" "http://www.w3.org/Graphics/SVG/1.1/DTD/svg11.dtd">
<svg xmlns="http://www.w3.org/2000/svg" version="1.1" width="236px" height="342px" style="shape-rendering:geometricPrecision; text-rendering:geometricPrecision; image-rendering:optimizeQuality; fill-rule:evenodd; clip-rule:evenodd" xmlns:xlink="http://www.w3.org/1999/xlink">
<g><path style="opacity:1" fill="#d7d7d7" d="M -0.5,-0.5 C 0.833333,-0.5 2.16667,-0.5 3.5,-0.5C 2.5,1.16667 1.16667,2.5 -0.5,3.5C -0.5,2.16667 -0.5,0.833333 -0.5,-0.5 Z"/></g>
<g><path style="opacity:1" fill="#1e1e1e" d="M 3.5,-0.5 C 79.5,-0.5 155.5,-0.5 231.5,-0.5C 232.5,1.16667 233.833,2.5 235.5,3.5C 235.5,114.833 235.5,226.167 235.5,337.5C 234.167,338.833 232.833,340.167 231.5,341.5C 155.5,341.5 79.5,341.5 3.5,341.5C 2.16667,340.167 0.833333,338.833 -0.5,337.5C -0.5,226.167 -0.5,114.833 -0.5,3.5C 1.16667,2.5 2.5,1.16667 3.5,-0.5 Z"/></g>
<g><path style="opacity:1" fill="#dddddd" d="M 231.5,-0.5 C 232.833,-0.5 234.167,-0.5 235.5,-0.5C 235.5,0.833333 235.5,2.16667 235.5,3.5C 233.833,2.5 232.5,1.16667 231.5,-0.5 Z"/></g>
<g><path style="opacity:1" fill="#fefefe" d="M 3.5,2.5 C 79.7375,2.16844 155.904,2.50177 232,3.5C 232.832,115.07 232.665,226.57 231.5,338C 155.263,338.831 79.0965,338.665 3,337.5C 2.16897,225.764 2.33564,114.097 3.5,2.5 Z"/></g>
<g><path style="opacity:1" fill="#f12018" d="M 19.5,55.5 C 18.1667,55.5 16.8333,55.5 15.5,55.5C 15.5,54.1667 15.5,52.8333 15.5,51.5C 18.6178,39.4747 21.9511,27.4747 25.5,15.5C 28.3938,15.0423 30.8938,15.709 33,17.5C 36.3345,30.5035 39.5011,43.5035 42.5,56.5C 40.8333,56.5 39.1667,56.5 37.5,56.5C 36.915,52.4088 35.915,48.4088 34.5,44.5C 30.5546,43.5091 26.5546,43.1758 22.5,43.5C 22.1016,47.7607 21.1016,51.7607 19.5,55.5 Z"/></g>
<g><path style="opacity:1" fill="#fceae6" d="M 28.5,23.5 C 29.1174,23.6107 29.6174,23.944 30,24.5C 30.8346,28.1788 31.668,31.8454 32.5,35.5C 30.2573,36.4742 27.924,36.8076 25.5,36.5C 25.8884,32.0068 26.8884,27.6734 28.5,23.5 Z"/></g>
<g><path style="opacity:1" fill="#bd363d" d="M 15.5,51.5 C 15.5,52.8333 15.5,54.1667 15.5,55.5C 16.8333,55.5 18.1667,55.5 19.5,55.5C 18.0813,56.4511 16.4147,56.7845 14.5,56.5C 14.2155,54.5853 14.5489,52.9187 15.5,51.5 Z"/></g>
<g><path style="opacity:1" fill="#f31410" d="M 21.5,66.5 C 24.4206,66.1459 26.7539,67.1459 28.5,69.5C 35.9554,64.4473 39.4554,66.4473 39,75.5C 36.4027,80.2656 32.9027,84.2656 28.5,87.5C 24.8427,83.6735 21.3427,79.6735 18,75.5C 16.6649,71.3919 17.8316,68.3919 21.5,66.5 Z"/></g>
<g><path style="opacity:1" fill="#fa0705" d="M 143.5,153.5 C 145.306,159.775 144.473,165.775 141,171.5C 134.152,180.345 126.652,188.511 118.5,196C 117.365,196.749 116.365,196.583 115.5,195.5C 108.42,188.426 101.753,181.092 95.5,173.5C 95.1307,171.559 94.464,169.725 93.5,168C 95.2112,166.867 95.7112,165.367 95,163.5C 94.3333,166.167 93.6667,166.167 93,163.5C 92.6667,163.833 92.3333,164.167 92,164.5C 91.1251,163.127 90.6251,161.627 90.5,160C 91.6202,156.092 93.2868,152.426 95.5,149C 97.5029,149.419 99.5029,150.253 101.5,151.5C 104.747,151.022 108.08,150.189 111.5,149C 113.643,152.791 116.143,156.291 119,159.5C 120.851,156.936 122.684,156.936 124.5,159.5C 125.386,158.675 125.719,157.675 125.5,156.5C 127.5,156.5 129.5,156.5 131.5,156.5C 130.077,153.384 128.744,150.551 127.5,148C 130.015,146.287 132.682,146.12 135.5,147.5C 138.158,149.497 140.825,151.497 143.5,153.5 Z"/></g>
<g><path style="opacity:1" fill="#f22018" d="M 143.5,153.5 C 140.825,151.497 138.158,149.497 135.5,147.5C 132.682,146.12 130.015,146.287 127.5,148C 128.744,150.551 130.077,153.384 131.5,156.5C 129.5,156.5 127.5,156.5 125.5,156.5C 125.719,157.675 125.386,158.675 124.5,159.5C 122.684,156.936 120.851,156.936 119,159.5C 116.143,156.291 113.643,152.791 111.5,149C 108.08,150.189 104.747,151.022 101.5,151.5C 99.5029,150.253 97.5029,149.419 95.5,149C 93.2868,152.426 91.6202,156.092 90.5,160C 90.6251,161.627 91.1251,163.127 92,164.5C 92.3333,164.167 92.6667,163.833 93,163.5C 93.6667,166.167 94.3333,166.167 95,163.5C 95.7112,165.367 95.2112,166.867 93.5,168C 94.464,169.725 95.1307,171.559 95.5,173.5C 88.6436,166.288 87.8102,158.288 93,149.5C 102.988,141.691 111.155,143.358 117.5,154.5C 121.926,144.968 128.926,142.468 138.5,147C 140.79,148.777 142.457,150.944 143.5,153.5 Z"/></g>
<g><path style="opacity:1" fill="#f5100e" d="M 205.5,255.5 C 209.737,258.228 213.571,261.561 217,265.5C 219.397,273.434 216.564,276.601 208.5,275C 207.874,274.25 207.374,273.416 207,272.5C 204.09,275.429 200.757,276.095 197,274.5C 195.578,271.97 195.245,269.303 196,266.5C 199.002,262.666 202.169,259 205.5,255.5 Z"/></g>
<g><path style="opacity:1" fill="#eb575f" d="M 197.5,287.5 C 195.716,286.28 194.05,286.28 192.5,287.5C 191.957,287.44 191.624,287.107 191.5,286.5C 192.5,286.167 193.5,285.833 194.5,285.5C 196.03,285.64 197.03,286.307 197.5,287.5 Z"/></g>
<g><path style="opacity:1" fill="#ed4b46" d="M 215.5,286.5 C 217.364,285.207 219.364,285.207 221.5,286.5C 220.429,291.492 218.763,296.159 216.5,300.5C 217.011,297.307 217.678,294.141 218.5,291C 218.95,288.374 217.95,286.874 215.5,286.5 Z"/></g>
<g><path style="opacity:1" fill="#f01813" d="M 197.5,287.5 C 198.738,289.214 199.405,291.214 199.5,293.5C 200.15,295.435 200.483,297.435 200.5,299.5C 204.702,299.817 208.702,299.483 212.5,298.5C 212.996,294.348 213.996,290.348 215.5,286.5C 217.95,286.874 218.95,288.374 218.5,291C 217.678,294.141 217.011,297.307 216.5,300.5C 215.457,306.247 214.123,311.914 212.5,317.5C 210.612,315.012 209.945,312.012 210.5,308.5C 210.5,307.5 210.5,306.5 210.5,305.5C 208.167,305.5 205.833,305.5 203.5,305.5C 204.222,309.506 205.055,313.506 206,317.5C 206.69,318.738 207.19,318.738 207.5,317.5C 209.388,319.988 210.055,322.988 209.5,326.5C 207.5,326.5 205.5,326.5 203.5,326.5C 202.943,321.835 201.61,317.502 199.5,313.5C 196.916,304.919 194.583,296.252 192.5,287.5C 194.05,286.28 195.716,286.28 197.5,287.5 Z"/></g>
<g><path style="opacity:1" fill="#f8ece9" d="M 210.5,308.5 C 208.747,311.146 207.747,314.146 207.5,317.5C 207.19,318.738 206.69,318.738 206,317.5C 205.055,313.506 204.222,309.506 203.5,305.5C 205.833,305.5 208.167,305.5 210.5,305.5C 210.5,306.5 210.5,307.5 210.5,308.5 Z"/></g>
<g><path style="opacity:1" fill="#ffb7b6" d="M 199.5,293.5 C 201.213,294.635 201.88,296.302 201.5,298.5C 205.167,298.5 208.833,298.5 212.5,298.5C 208.702,299.483 204.702,299.817 200.5,299.5C 200.483,297.435 200.15,295.435 199.5,293.5 Z"/></g>
<g><path style="opacity:1" fill="#ffc1ba" d="M 199.5,313.5 C 201.61,317.502 202.943,321.835 203.5,326.5C 201.39,322.498 200.057,318.165 199.5,313.5 Z"/></g>
<g><path style="opacity:1" fill="#eb3d37" d="M 210.5,308.5 C 209.945,312.012 210.612,315.012 212.5,317.5C 211.518,320.763 210.851,324.097 210.5,327.5C 207.941,327.802 205.607,327.468 203.5,326.5C 205.5,326.5 207.5,326.5 209.5,326.5C 210.055,322.988 209.388,319.988 207.5,317.5C 207.747,314.146 208.747,311.146 210.5,308.5 Z"/></g>
<g><path style="opacity:1" fill="#e8e8e8" d="M -0.5,337.5 C 0.833333,338.833 2.16667,340.167 3.5,341.5C 2.16667,341.5 0.833333,341.5 -0.5,341.5C -0.5,340.167 -0.5,338.833 -0.5,337.5 Z"/></g>
<g><path style="opacity:1" fill="#ececec" d="M 235.5,337.5 C 235.5,338.833 235.5,340.167 235.5,341.5C 234.167,341.5 232.833,341.5 231.5,341.5C 232.833,340.167 234.167,338.833 235.5,337.5 Z"/></g>
</svg>
