<?xml version="1.0" encoding="UTF-8"?>
<!DOCTYPE svg PUBLIC "-//W3C//DTD SVG 1.1//EN" "http://www.w3.org/Graphics/SVG/1.1/DTD/svg11.dtd">
<svg xmlns="http://www.w3.org/2000/svg" version="1.1" width="190px" height="265px" style="shape-rendering:geometricPrecision; text-rendering:geometricPrecision; image-rendering:optimizeQuality; fill-rule:evenodd; clip-rule:evenodd" xmlns:xlink="http://www.w3.org/1999/xlink">
<g><path style="opacity:1" fill="#e9eaee" d="M 68.5,1.5 C 69.3255,5.98193 69.8255,10.6486 70,15.5C 70.498,12.5184 70.6646,9.51838 70.5,6.5C 73.5,6.5 76.5,6.5 79.5,6.5C 79.1712,12.2055 79.5046,17.8722 80.5,23.5C 81.4948,18.2079 81.8282,12.8746 81.5,7.5C 83.6547,7.62799 85.6547,7.12799 87.5,6C 81.9627,4.27356 76.296,3.27356 70.5,3C 73.5,2.66667 76.5,2.33333 79.5,2C 114.165,1.50002 148.832,1.33335 183.5,1.5C 183.5,2.5 183.5,3.5 183.5,4.5C 172.833,4.5 162.167,4.5 151.5,4.5C 150.959,13.4906 150.626,22.4906 150.5,31.5C 152.833,31.5 155.167,31.5 157.5,31.5C 158.521,37.7877 159.188,44.121 159.5,50.5C 162.167,50.5 164.833,50.5 167.5,50.5C 167.5,49.5 167.5,48.5 167.5,47.5C 170.167,47.5 172.833,47.5 175.5,47.5C 175.5,50.1667 175.5,52.8333 175.5,55.5C 178.167,55.5 180.833,55.5 183.5,55.5C 183.336,52.8127 183.503,50.146 184,47.5C 186.22,68.7825 186.887,90.1159 186,111.5C 185.818,114.226 185.318,116.893 184.5,119.5C 184.167,118.167 183.833,116.833 183.5,115.5C 184.6,100.849 184.766,86.1819 184,71.5C 183.829,84.8976 182.996,98.231 181.5,111.5C 180.5,111.5 179.5,111.5 178.5,111.5C 178.5,114.167 178.5,116.833 178.5,119.5C 172.167,119.5 165.833,119.5 159.5,119.5C 158.868,122.748 158.868,125.915 159.5,129C 159.294,130.865 158.628,132.532 157.5,134C 157.944,135.762 158.444,135.595 159,133.5C 159.498,136.817 159.665,140.15 159.5,143.5C 160.5,143.5 161.5,143.5 162.5,143.5C 162.168,154.187 162.501,164.854 163.5,175.5C 164.664,154.198 165.497,154.198 166,175.5C 166.5,167.495 167,159.495 167.5,151.5C 168.5,151.5 169.5,151.5 170.5,151.5C 171.111,162.156 171.611,172.823 172,183.5C 172.816,184.823 173.983,185.489 175.5,185.5C 175.823,189.226 175.489,192.893 174.5,196.5C 172.203,194.59 169.537,193.59 166.5,193.5C 164.159,194.898 161.825,196.231 159.5,197.5C 158.674,192.856 157.841,188.189 157,183.5C 156,194.167 155,194.167 154,183.5C 153.503,186.146 153.336,188.813 153.5,191.5C 149.71,192.101 146.544,191.101 144,188.5C 141.959,189.752 139.625,190.419 137,190.5C 130.983,191.916 127.816,189.583 127.5,183.5C 126.337,203.467 125.503,203.467 125,183.5C 123.95,189.785 124.45,195.785 126.5,201.5C 125.041,201.433 123.708,201.766 122.5,202.5C 123.584,196.217 123.751,189.884 123,183.5C 122.667,188.833 122.333,194.167 122,199.5C 121,194.167 120,188.833 119,183.5C 118.818,186.226 118.318,188.893 117.5,191.5C 116.211,185.81 116.211,180.143 117.5,174.5C 117.167,174.167 116.833,173.833 116.5,173.5C 115.476,174.853 114.143,175.52 112.5,175.5C 112.666,180.844 112.499,186.177 112,191.5C 112.114,186.394 111.28,181.727 109.5,177.5C 111.081,174.756 112.081,171.756 112.5,168.5C 110.934,159.93 106.267,157.597 98.5,161.5C 95.0557,168.456 93.889,168.122 95,160.5C 95.6701,156.989 96.8368,153.656 98.5,150.5C 94.8333,149.167 91.1667,149.167 87.5,150.5C 91.0894,155.309 92.256,160.643 91,166.5C 87.0001,158.5 81.6667,157.5 75,163.5C 72.9142,167.667 73.2475,171.667 76,175.5C 78.9542,180.39 82.6208,184.723 87,188.5C 89.3465,191.194 91.1798,194.194 92.5,197.5C 91.6694,208.659 91.1694,219.993 91,231.5C 90.6667,220.833 90.3333,210.167 90,199.5C 89.5001,218.164 89.3334,236.83 89.5,255.5C 78.8333,255.5 68.1667,255.5 57.5,255.5C 57.334,250.156 57.5006,244.823 58,239.5C 58.3333,242.167 58.6667,244.833 59,247.5C 59.3333,243.5 59.6667,239.5 60,235.5C 63.0748,234.531 64.0748,232.531 63,229.5C 61.8668,231.211 60.3668,231.711 58.5,231C 60.0172,227.206 62.0172,223.373 64.5,219.5C 68.7456,213.349 68.4123,207.682 63.5,202.5C 62.0474,201.175 62.3808,200.342 64.5,200C 63.8095,198.933 63.3095,197.766 63,196.5C 62.6713,200.04 60.838,201.206 57.5,200C 56.7178,197.26 56.2178,194.426 56,191.5C 49.2753,190.237 49.1086,189.07 55.5,188C 53.7703,184.148 52.9369,179.982 53,175.5C 52,191.5 51,191.5 50,175.5C 49.3333,191.5 48.6667,191.5 48,175.5C 47.6667,178.167 47.3333,180.833 47,183.5C 46.3333,175.833 46.3333,168.167 47,160.5C 47.9147,159.672 48.5814,158.672 49,157.5C 49.6667,160.167 50.3333,160.167 51,157.5C 51.9948,160.77 52.8281,164.103 53.5,167.5C 54.3214,164.553 54.8214,161.553 55,158.5C 57.0574,161.028 58.0574,164.028 58,167.5C 58.4974,164.854 58.6641,162.187 58.5,159.5C 60.1667,159.5 61.8333,159.5 63.5,159.5C 63.5,154.833 63.5,150.167 63.5,145.5C 67.2939,142.007 68.4606,137.674 67,132.5C 62.6666,126.67 58.1666,121.004 53.5,115.5C 53.2577,112.319 53.2577,109.319 53.5,106.5C 51.7494,104.51 50.7494,102.177 50.5,99.5C 52.4919,92.905 52.8252,86.2384 51.5,79.5C 48.3522,78.8596 48.0188,77.8596 50.5,76.5C 49.7261,75.2888 48.8928,75.2888 48,76.5C 47.3103,74.6498 46.1436,73.3164 44.5,72.5C 47.8333,72.5 51.1667,72.5 54.5,72.5C 54.7709,70.6203 54.1042,69.287 52.5,68.5C 51.3485,64.8956 50.3485,61.229 49.5,57.5C 49.8333,56.8333 50.1667,56.1667 50.5,55.5C 53.0332,61.2016 57.3665,63.0349 63.5,61C 67.2027,57.604 68.3694,53.4374 67,48.5C 59.861,40.8646 53.6943,32.5313 48.5,23.5C 47.016,24.4669 46.016,25.8002 45.5,27.5C 43.9081,26.3984 43.0748,27.065 43,29.5C 39.5351,29.0328 37.8684,27.0328 38,23.5C 37.5704,28.5716 36.2371,33.2382 34,37.5C 33.6827,35.6992 33.016,35.3659 32,36.5C 31.1632,30.1635 30.4966,30.4968 30,37.5C 28.3654,34.3026 26.532,31.3026 24.5,28.5C 23.8825,26.7708 22.8825,25.2708 21.5,24C 24.7809,16.26 22.1142,12.5934 13.5,13C 11.6498,13.6897 10.3164,14.8564 9.5,16.5C 7.29107,15.104 5.79107,13.104 5,10.5C 4.66667,12.1667 4.33333,13.8333 4,15.5C 3.52907,13.7536 2.86241,12.087 2,10.5C 1.82716,16.3482 1.32716,22.0149 0.5,27.5C 0.169174,19.8045 0.502507,12.1378 1.5,4.5C 2.646,3.85506 3.646,3.02173 4.5,2C 14.7641,0.869105 25.0974,0.369105 35.5,0.5C 47.1254,0.562792 58.1254,0.896126 68.5,1.5 Z"/></g>
<g><path style="opacity:1" fill="#2d2a2b" d="M 52.5,68.5 C 52.4142,69.4959 52.7476,70.3292 53.5,71C 49.9733,71.8075 46.6399,71.6408 43.5,70.5C 45.6902,65.4612 46.6902,60.4612 46.5,55.5C 44.9733,57.1933 43.6399,59.0266 42.5,61C 30.6398,62.1676 26.8064,57.0009 31,45.5C 36.426,39.9147 41.2593,33.9147 45.5,27.5C 46.016,25.8002 47.016,24.4669 48.5,23.5C 53.6943,32.5313 59.861,40.8646 67,48.5C 68.3694,53.4374 67.2027,57.604 63.5,61C 57.3665,63.0349 53.0332,61.2016 50.5,55.5C 50.1667,56.1667 49.8333,56.8333 49.5,57.5C 50.3485,61.229 51.3485,64.8956 52.5,68.5 Z"/></g>
<g><path style="opacity:1" fill="#2f2d2d" d="M 137.5,23.5 C 142.027,31.1957 147.527,38.1957 154,44.5C 159.006,50.6039 158.506,56.1039 152.5,61C 146.617,62.9224 142.451,61.0891 140,55.5C 139.333,57.8333 139.333,60.1667 140,62.5C 141.09,65.9394 142.256,69.2727 143.5,72.5C 139.833,72.5 136.167,72.5 132.5,72.5C 133.757,68.5587 134.924,64.5587 136,60.5C 136.667,58.8333 136.667,57.1667 136,55.5C 133.185,61.1691 128.685,63.0024 122.5,61C 117.803,55.9605 117.303,50.4605 121,44.5C 127.477,38.1986 132.977,31.1986 137.5,23.5 Z"/></g>
<g><path style="opacity:1" fill="#e3e3e7" d="M 9.5,16.5 C 9.05484,19.3646 9.7215,21.8646 11.5,24C 5.72045,29.876 6.38712,34.876 13.5,39C 21.4116,40.0331 25.0783,36.5331 24.5,28.5C 26.532,31.3026 28.3654,34.3026 30,37.5C 30.4966,30.4968 31.1632,30.1635 32,36.5C 33.016,35.3659 33.6827,35.6992 34,37.5C 36.2371,33.2382 37.5704,28.5716 38,23.5C 37.8684,27.0328 39.5351,29.0328 43,29.5C 43.0748,27.065 43.9081,26.3984 45.5,27.5C 41.2593,33.9147 36.426,39.9147 31,45.5C 26.8064,57.0009 30.6398,62.1676 42.5,61C 43.6399,59.0266 44.9733,57.1933 46.5,55.5C 46.6902,60.4612 45.6902,65.4612 43.5,70.5C 42.2426,71.6226 42.5759,72.2893 44.5,72.5C 46.1436,73.3164 47.3103,74.6498 48,76.5C 48.8928,75.2888 49.7261,75.2888 50.5,76.5C 48.0188,77.8596 48.3522,78.8596 51.5,79.5C 52.8252,86.2384 52.4919,92.905 50.5,99.5C 50.7494,102.177 51.7494,104.51 53.5,106.5C 53.2577,109.319 53.2577,112.319 53.5,115.5C 52.1077,113.727 50.941,111.727 50,109.5C 49.2825,108.549 48.4491,108.383 47.5,109C 42.0487,116.786 36.2154,124.286 30,131.5C 27.7196,142.215 31.8862,146.715 42.5,145C 43.9557,143.255 45.289,141.422 46.5,139.5C 46.8333,139.833 47.1667,140.167 47.5,140.5C 46.7495,146.183 45.0828,151.517 42.5,156.5C 42.1205,157.133 41.7871,157.8 41.5,158.5C 40.0133,153.343 39.3466,153.676 39.5,159.5C 34.4937,157.224 29.1603,155.89 23.5,155.5C 23.5,156.833 23.5,158.167 23.5,159.5C 22.5,159.5 21.5,159.5 20.5,159.5C 20.5,154.167 20.5,148.833 20.5,143.5C 19.5,143.5 18.5,143.5 17.5,143.5C 17.5,140.833 17.5,138.167 17.5,135.5C 19.5,135.5 21.5,135.5 23.5,135.5C 23.2317,132.881 23.565,130.381 24.5,128C 23.3159,126.82 22.6493,125.32 22.5,123.5C 22.8631,118.047 23.8631,112.714 25.5,107.5C 25.1667,106.167 24.8333,104.833 24.5,103.5C 23.5344,105.396 23.2011,107.396 23.5,109.5C 20.2893,109.012 17.456,109.679 15,111.5C 14.5,115.5 14,119.5 13.5,123.5C 14.9964,132.775 15.663,142.109 15.5,151.5C 12.8333,151.5 10.1667,151.5 7.5,151.5C 6.80028,167.487 6.30028,183.487 6,199.5C 5.11123,172.839 4.44456,146.172 4,119.5C 2.80063,135.469 2.13396,151.469 2,167.5C 1.83102,153.994 1.33102,140.66 0.5,127.5C 0.592364,94.1027 0.592364,60.7693 0.5,27.5C 1.32716,22.0149 1.82716,16.3482 2,10.5C 2.86241,12.087 3.52907,13.7536 4,15.5C 4.33333,13.8333 4.66667,12.1667 5,10.5C 5.79107,13.104 7.29107,15.104 9.5,16.5 Z"/></g>
<g><path style="opacity:1" fill="#2f2f30" d="M 15.5,46.5 C 19.3631,50.2014 22.6964,54.3681 25.5,59C 24.7922,62.9222 22.4589,64.4222 18.5,63.5C 18.719,62.325 18.3857,61.325 17.5,60.5C 17.1667,61 16.8333,61.5 16.5,62C 17.6094,64.0466 18.2761,66.2133 18.5,68.5C 16.712,68.7852 15.0453,68.4519 13.5,67.5C 15.1174,65.3684 15.6174,63.0351 15,60.5C 14.0508,63.1997 12.2175,64.033 9.5,63C 8.42717,61.6871 7.7605,60.1871 7.5,58.5C 9.76495,54.2345 12.4316,50.2345 15.5,46.5 Z"/></g>
<g><path style="opacity:1" fill="#fcfcfd" d="M -0.5,-0.5 C 62.8333,-0.5 126.167,-0.5 189.5,-0.5C 189.5,15.5 189.5,31.5 189.5,47.5C 187.681,34.2034 186.848,20.5367 187,6.5C 186.55,4.48102 185.717,2.64769 184.5,1C 145.664,0.168827 106.998,0.335493 68.5,1.5C 58.1254,0.896126 47.1254,0.562792 35.5,0.5C 25.0974,0.369105 14.7641,0.869105 4.5,2C 3.646,3.02173 2.646,3.85506 1.5,4.5C 0.502507,12.1378 0.169174,19.8045 0.5,27.5C 0.592364,60.7693 0.592364,94.1027 0.5,127.5C 0.333343,171.501 0.50001,215.501 1,259.5C 2.66667,260.833 4.33333,262.167 6,263.5C 9.05675,262.549 12.2234,262.216 15.5,262.5C 69.7557,263.223 124.922,263.556 181,263.5C 182.507,261.992 184.173,260.659 186,259.5C 186.642,247.486 186.476,235.486 185.5,223.5C 186.748,222.666 187.415,221.333 187.5,219.5C 186.917,212.849 186.584,206.183 186.5,199.5C 186.743,153.825 187.743,108.492 189.5,63.5C 189.5,130.5 189.5,197.5 189.5,264.5C 126.167,264.5 62.8333,264.5 -0.5,264.5C -0.5,176.167 -0.5,87.8333 -0.5,-0.5 Z"/></g>
<g><path style="opacity:1" fill="#353537" d="M 24.5,28.5 C 25.0783,36.5331 21.4116,40.0331 13.5,39C 6.38712,34.876 5.72045,29.876 11.5,24C 9.7215,21.8646 9.05484,19.3646 9.5,16.5C 10.3164,14.8564 11.6498,13.6897 13.5,13C 22.1142,12.5934 24.7809,16.26 21.5,24C 22.8825,25.2708 23.8825,26.7708 24.5,28.5 Z"/></g>
<g><path style="opacity:1" fill="#d6d6d9" d="M 12.5,26.5 C 21.5299,25.66 23.5299,28.8266 18.5,36C 10.942,36.2818 8.94198,33.1152 12.5,26.5 Z"/></g>
<g><path style="opacity:1" fill="#dfdfdf" d="M 13.5,16.5 C 18.1225,15.4082 19.9558,17.0748 19,21.5C 13.4205,23.7516 11.5871,22.0849 13.5,16.5 Z"/></g>
<g><path style="opacity:1" fill="#6f6f73" d="M 52.5,68.5 C 54.1042,69.287 54.7709,70.6203 54.5,72.5C 51.1667,72.5 47.8333,72.5 44.5,72.5C 42.5759,72.2893 42.2426,71.6226 43.5,70.5C 46.6399,71.6408 49.9733,71.8075 53.5,71C 52.7476,70.3292 52.4142,69.4959 52.5,68.5 Z"/></g>
<g><path style="opacity:1" fill="#2c2929" d="M 92.5,66.5 C 98.3149,73.4293 104.148,80.4293 110,87.5C 113.592,93.1012 113.092,98.2679 108.5,103C 102.315,105.002 97.8151,103.169 95,97.5C 94.4319,103.378 95.9319,108.711 99.5,113.5C 95.5,114.833 91.5,114.833 87.5,113.5C 88.3917,110.716 89.5584,108.05 91,105.5C 92.4856,97.1761 91.319,96.1761 87.5,102.5C 84.2156,103.657 80.8823,103.824 77.5,103C 72.0798,96.7352 72.2464,90.5685 78,84.5C 84.0419,79.3835 88.8752,73.3835 92.5,66.5 Z"/></g>
<g><path style="opacity:1" fill="#edeef2" d="M 68.5,1.5 C 106.998,0.335493 145.664,0.168827 184.5,1C 185.717,2.64769 186.55,4.48102 187,6.5C 186.848,20.5367 187.681,34.2034 189.5,47.5C 189.5,52.8333 189.5,58.1667 189.5,63.5C 187.743,108.492 186.743,153.825 186.5,199.5C 186.584,206.183 186.917,212.849 187.5,219.5C 187.415,221.333 186.748,222.666 185.5,223.5C 183.5,223.5 181.5,223.5 179.5,223.5C 179.665,220.15 179.498,216.817 179,213.5C 178.667,214.167 178.333,214.833 178,215.5C 177.392,213.846 176.892,212.179 176.5,210.5C 176.5,209.833 176.833,209.5 177.5,209.5C 178.268,210.263 178.768,211.263 179,212.5C 179.974,210.122 180.641,210.456 181,213.5C 181.667,210.5 181.667,207.5 181,204.5C 180.094,207.121 179.594,206.954 179.5,204C 181.467,197.293 181.967,190.46 181,183.5C 180,204.833 179,204.833 178,183.5C 177.667,188.833 177.333,194.167 177,199.5C 176.9,193.427 176.4,188.761 175.5,185.5C 173.983,185.489 172.816,184.823 172,183.5C 171.611,172.823 171.111,162.156 170.5,151.5C 169.5,151.5 168.5,151.5 167.5,151.5C 167,159.495 166.5,167.495 166,175.5C 165.497,154.198 164.664,154.198 163.5,175.5C 162.501,164.854 162.168,154.187 162.5,143.5C 161.5,143.5 160.5,143.5 159.5,143.5C 159.665,140.15 159.498,136.817 159,133.5C 158.444,135.595 157.944,135.762 157.5,134C 158.628,132.532 159.294,130.865 159.5,129C 158.868,125.915 158.868,122.748 159.5,119.5C 165.833,119.5 172.167,119.5 178.5,119.5C 178.5,116.833 178.5,114.167 178.5,111.5C 179.5,111.5 180.5,111.5 181.5,111.5C 182.996,98.231 183.829,84.8976 184,71.5C 184.766,86.1819 184.6,100.849 183.5,115.5C 183.833,116.833 184.167,118.167 184.5,119.5C 185.318,116.893 185.818,114.226 186,111.5C 186.887,90.1159 186.22,68.7825 184,47.5C 183.503,50.146 183.336,52.8127 183.5,55.5C 180.833,55.5 178.167,55.5 175.5,55.5C 175.5,52.8333 175.5,50.1667 175.5,47.5C 172.833,47.5 170.167,47.5 167.5,47.5C 167.5,48.5 167.5,49.5 167.5,50.5C 164.833,50.5 162.167,50.5 159.5,50.5C 159.188,44.121 158.521,37.7877 157.5,31.5C 155.167,31.5 152.833,31.5 150.5,31.5C 150.626,22.4906 150.959,13.4906 151.5,4.5C 162.167,4.5 172.833,4.5 183.5,4.5C 183.5,3.5 183.5,2.5 183.5,1.5C 148.832,1.33335 114.165,1.50002 79.5,2C 76.5,2.33333 73.5,2.66667 70.5,3C 76.296,3.27356 81.9627,4.27356 87.5,6C 85.6547,7.12799 83.6547,7.62799 81.5,7.5C 81.8282,12.8746 81.4948,18.2079 80.5,23.5C 79.5046,17.8722 79.1712,12.2055 79.5,6.5C 76.5,6.5 73.5,6.5 70.5,6.5C 70.6646,9.51838 70.498,12.5184 70,15.5C 69.8255,10.6486 69.3255,5.98193 68.5,1.5 Z"/></g>
<g><path style="opacity:1" fill="#2e2b2b" d="M 137.5,107.5 C 142.92,115.973 149.087,123.973 156,131.5C 156.854,135.625 156.52,139.625 155,143.5C 148.428,148.345 143.428,147.012 140,139.5C 139.045,145.27 140.211,150.603 143.5,155.5C 139.833,156.833 136.167,156.833 132.5,155.5C 135.256,150.479 136.423,145.146 136,139.5C 132.324,145.694 127.324,147.027 121,143.5C 117.466,137.911 117.799,132.578 122,127.5C 128.373,121.746 133.54,115.079 137.5,107.5 Z"/></g>
<g><path style="opacity:1" fill="#2c2a29" d="M 53.5,115.5 C 58.1666,121.004 62.6666,126.67 67,132.5C 68.4606,137.674 67.2939,142.007 63.5,145.5C 57.5333,147.229 53.1999,145.229 50.5,139.5C 49.5475,145.326 50.8809,150.66 54.5,155.5C 50.5546,156.491 46.5546,156.824 42.5,156.5C 45.0828,151.517 46.7495,146.183 47.5,140.5C 47.1667,140.167 46.8333,139.833 46.5,139.5C 45.289,141.422 43.9557,143.255 42.5,145C 31.8862,146.715 27.7196,142.215 30,131.5C 36.2154,124.286 42.0487,116.786 47.5,109C 48.4491,108.383 49.2825,108.549 50,109.5C 50.941,111.727 52.1077,113.727 53.5,115.5 Z"/></g>
<g><path style="opacity:1" fill="#e6e7ea" d="M 42.5,156.5 C 46.5546,156.824 50.5546,156.491 54.5,155.5C 50.8809,150.66 49.5475,145.326 50.5,139.5C 53.1999,145.229 57.5333,147.229 63.5,145.5C 63.5,150.167 63.5,154.833 63.5,159.5C 61.8333,159.5 60.1667,159.5 58.5,159.5C 58.6641,162.187 58.4974,164.854 58,167.5C 58.0574,164.028 57.0574,161.028 55,158.5C 54.8214,161.553 54.3214,164.553 53.5,167.5C 52.8281,164.103 51.9948,160.77 51,157.5C 50.3333,160.167 49.6667,160.167 49,157.5C 48.5814,158.672 47.9147,159.672 47,160.5C 46.3333,168.167 46.3333,175.833 47,183.5C 47.3333,180.833 47.6667,178.167 48,175.5C 48.6667,191.5 49.3333,191.5 50,175.5C 51,191.5 52,191.5 53,175.5C 52.9369,179.982 53.7703,184.148 55.5,188C 49.1086,189.07 49.2753,190.237 56,191.5C 56.2178,194.426 56.7178,197.26 57.5,200C 60.838,201.206 62.6713,200.04 63,196.5C 63.3095,197.766 63.8095,198.933 64.5,200C 62.3808,200.342 62.0474,201.175 63.5,202.5C 57.3223,200.421 52.989,202.421 50.5,208.5C 49.6376,202.564 50.971,197.064 54.5,192C 50.5,191.333 46.5,191.333 42.5,192C 45.9783,197.077 47.3117,202.577 46.5,208.5C 43.1764,200.89 38.1764,199.557 31.5,204.5C 28.7595,209.584 28.9261,214.584 32,219.5C 38.0962,225.755 43.5962,232.421 48.5,239.5C 53.3721,232.399 58.7054,225.732 64.5,219.5C 62.0172,223.373 60.0172,227.206 58.5,231C 60.3668,231.711 61.8668,231.211 63,229.5C 64.0748,232.531 63.0748,234.531 60,235.5C 59.6667,239.5 59.3333,243.5 59,247.5C 58.6667,244.833 58.3333,242.167 58,239.5C 57.5006,244.823 57.334,250.156 57.5,255.5C 56.5386,257.265 56.2053,259.265 56.5,261.5C 52.5,261.5 48.5,261.5 44.5,261.5C 44.3328,232.174 43.8328,232.174 43,261.5C 42.1737,253.527 41.6737,253.527 41.5,261.5C 32.6506,261.174 23.9839,261.507 15.5,262.5C 12.2234,262.216 9.05675,262.549 6,263.5C 4.33333,262.167 2.66667,260.833 1,259.5C 0.50001,215.501 0.333343,171.501 0.5,127.5C 1.33102,140.66 1.83102,153.994 2,167.5C 2.13396,151.469 2.80063,135.469 4,119.5C 4.44456,146.172 5.11123,172.839 6,199.5C 6.30028,183.487 6.80028,167.487 7.5,151.5C 10.1667,151.5 12.8333,151.5 15.5,151.5C 15.663,142.109 14.9964,132.775 13.5,123.5C 14,119.5 14.5,115.5 15,111.5C 17.456,109.679 20.2893,109.012 23.5,109.5C 23.2011,107.396 23.5344,105.396 24.5,103.5C 24.8333,104.833 25.1667,106.167 25.5,107.5C 23.8631,112.714 22.8631,118.047 22.5,123.5C 22.6493,125.32 23.3159,126.82 24.5,128C 23.565,130.381 23.2317,132.881 23.5,135.5C 21.5,135.5 19.5,135.5 17.5,135.5C 17.5,138.167 17.5,140.833 17.5,143.5C 18.5,143.5 19.5,143.5 20.5,143.5C 20.5,148.833 20.5,154.167 20.5,159.5C 21.5,159.5 22.5,159.5 23.5,159.5C 23.5,158.167 23.5,156.833 23.5,155.5C 29.1603,155.89 34.4937,157.224 39.5,159.5C 39.3466,153.676 40.0133,153.343 41.5,158.5C 41.7871,157.8 42.1205,157.133 42.5,156.5 Z"/></g>
<g><path style="opacity:1" fill="#2d2a2a" d="M 109.5,177.5 C 103.083,183.579 97.4164,190.246 92.5,197.5C 91.1798,194.194 89.3465,191.194 87,188.5C 82.6208,184.723 78.9542,180.39 76,175.5C 73.2475,171.667 72.9142,167.667 75,163.5C 81.6667,157.5 87.0001,158.5 91,166.5C 92.256,160.643 91.0894,155.309 87.5,150.5C 91.1667,149.167 94.8333,149.167 98.5,150.5C 96.8368,153.656 95.6701,156.989 95,160.5C 93.889,168.122 95.0557,168.456 98.5,161.5C 106.267,157.597 110.934,159.93 112.5,168.5C 112.081,171.756 111.081,174.756 109.5,177.5 Z"/></g>
<g><path style="opacity:1" fill="#e9eaed" d="M 122.5,202.5 C 118.332,206.506 117.498,211.172 120,216.5C 126.769,223.934 132.769,231.934 138,240.5C 142.895,232.27 148.562,224.604 155,217.5C 159.696,209.237 157.529,203.904 148.5,201.5C 144.029,201.801 141.196,204.134 140,208.5C 139.265,202.772 140.431,197.439 143.5,192.5C 139.833,191.167 136.167,191.167 132.5,192.5C 135.141,197.543 136.308,202.877 136,208.5C 134.297,204.075 131.13,201.741 126.5,201.5C 124.45,195.785 123.95,189.785 125,183.5C 125.503,203.467 126.337,203.467 127.5,183.5C 127.816,189.583 130.983,191.916 137,190.5C 139.625,190.419 141.959,189.752 144,188.5C 146.544,191.101 149.71,192.101 153.5,191.5C 153.336,188.813 153.503,186.146 154,183.5C 155,194.167 156,194.167 157,183.5C 157.841,188.189 158.674,192.856 159.5,197.5C 161.825,196.231 164.159,194.898 166.5,193.5C 169.537,193.59 172.203,194.59 174.5,196.5C 175.489,192.893 175.823,189.226 175.5,185.5C 176.4,188.761 176.9,193.427 177,199.5C 177.333,194.167 177.667,188.833 178,183.5C 179,204.833 180,204.833 181,183.5C 181.967,190.46 181.467,197.293 179.5,204C 179.594,206.954 180.094,207.121 181,204.5C 181.667,207.5 181.667,210.5 181,213.5C 180.641,210.456 179.974,210.122 179,212.5C 178.768,211.263 178.268,210.263 177.5,209.5C 178.435,206.887 178.602,204.221 178,201.5C 175.088,199.995 172.755,200.662 171,203.5C 170.383,200.965 170.883,198.632 172.5,196.5C 170.926,195.369 169.259,195.202 167.5,196C 169.037,198.313 169.537,200.813 169,203.5C 167.695,200.694 165.528,199.86 162.5,201C 161.409,203.064 161.242,205.231 162,207.5C 164.667,210.833 167.333,214.167 170,217.5C 171.719,214.712 173.885,212.379 176.5,210.5C 176.892,212.179 177.392,213.846 178,215.5C 178.333,214.833 178.667,214.167 179,213.5C 179.498,216.817 179.665,220.15 179.5,223.5C 181.5,223.5 183.5,223.5 185.5,223.5C 186.476,235.486 186.642,247.486 186,259.5C 184.173,260.659 182.507,261.992 181,263.5C 124.922,263.556 69.7557,263.223 15.5,262.5C 23.9839,261.507 32.6506,261.174 41.5,261.5C 41.6737,253.527 42.1737,253.527 43,261.5C 43.8328,232.174 44.3328,232.174 44.5,261.5C 48.5,261.5 52.5,261.5 56.5,261.5C 56.2053,259.265 56.5386,257.265 57.5,255.5C 68.1667,255.5 78.8333,255.5 89.5,255.5C 89.3334,236.83 89.5001,218.164 90,199.5C 90.3333,210.167 90.6667,220.833 91,231.5C 91.1694,219.993 91.6694,208.659 92.5,197.5C 97.4164,190.246 103.083,183.579 109.5,177.5C 111.28,181.727 112.114,186.394 112,191.5C 112.499,186.177 112.666,180.844 112.5,175.5C 114.143,175.52 115.476,174.853 116.5,173.5C 116.833,173.833 117.167,174.167 117.5,174.5C 116.211,180.143 116.211,185.81 117.5,191.5C 118.318,188.893 118.818,186.226 119,183.5C 120,188.833 121,194.167 122,199.5C 122.333,194.167 122.667,188.833 123,183.5C 123.751,189.884 123.584,196.217 122.5,202.5 Z"/></g>
<g><path style="opacity:1" fill="#302e2d" d="M 177.5,209.5 C 176.833,209.5 176.5,209.833 176.5,210.5C 173.885,212.379 171.719,214.712 170,217.5C 167.333,214.167 164.667,210.833 162,207.5C 161.242,205.231 161.409,203.064 162.5,201C 165.528,199.86 167.695,200.694 169,203.5C 169.537,200.813 169.037,198.313 167.5,196C 169.259,195.202 170.926,195.369 172.5,196.5C 170.883,198.632 170.383,200.965 171,203.5C 172.755,200.662 175.088,199.995 178,201.5C 178.602,204.221 178.435,206.887 177.5,209.5 Z"/></g>
<g><path style="opacity:1" fill="#2d2b2b" d="M 122.5,202.5 C 123.708,201.766 125.041,201.433 126.5,201.5C 131.13,201.741 134.297,204.075 136,208.5C 136.308,202.877 135.141,197.543 132.5,192.5C 136.167,191.167 139.833,191.167 143.5,192.5C 140.431,197.439 139.265,202.772 140,208.5C 141.196,204.134 144.029,201.801 148.5,201.5C 157.529,203.904 159.696,209.237 155,217.5C 148.562,224.604 142.895,232.27 138,240.5C 132.769,231.934 126.769,223.934 120,216.5C 117.498,211.172 118.332,206.506 122.5,202.5 Z"/></g>
<g><path style="opacity:1" fill="#2c2a29" d="M 63.5,202.5 C 68.4123,207.682 68.7456,213.349 64.5,219.5C 58.7054,225.732 53.3721,232.399 48.5,239.5C 43.5962,232.421 38.0962,225.755 32,219.5C 28.9261,214.584 28.7595,209.584 31.5,204.5C 38.1764,199.557 43.1764,200.89 46.5,208.5C 47.3117,202.577 45.9783,197.077 42.5,192C 46.5,191.333 50.5,191.333 54.5,192C 50.971,197.064 49.6376,202.564 50.5,208.5C 52.989,202.421 57.3223,200.421 63.5,202.5 Z"/></g>
<g><path style="opacity:1" fill="#343434" d="M 166.5,224.5 C 178.416,224.388 181.416,229.388 175.5,239.5C 178.561,243.749 177.895,247.249 173.5,250C 169.12,251.202 165.62,250.036 163,246.5C 162.383,243.965 162.883,241.632 164.5,239.5C 159.959,233.623 160.626,228.623 166.5,224.5 Z"/></g>
<g><path style="opacity:1" fill="#dfdfdf" d="M 167.5,227.5 C 174.129,227.096 176.462,229.929 174.5,236C 171.209,238.074 168.043,237.908 165,235.5C 164.018,232.225 164.851,229.559 167.5,227.5 Z"/></g>
<g><path style="opacity:1" fill="#dbdbdb" d="M 167.5,240.5 C 173.158,239.679 174.825,241.846 172.5,247C 166.731,248.178 165.064,246.011 167.5,240.5 Z"/></g>
</svg>
