<?xml version="1.0" encoding="UTF-8"?>
<!DOCTYPE svg PUBLIC "-//W3C//DTD SVG 1.1//EN" "http://www.w3.org/Graphics/SVG/1.1/DTD/svg11.dtd">
<svg xmlns="http://www.w3.org/2000/svg" version="1.1" width="691px" height="1056px" style="shape-rendering:geometricPrecision; text-rendering:geometricPrecision; image-rendering:optimizeQuality; fill-rule:evenodd; clip-rule:evenodd" xmlns:xlink="http://www.w3.org/1999/xlink">
<g><path style="opacity:0.906" fill="#bdbfc1" d="M 45.5,0.5 C 245.833,1.12134 446.166,1.62134 646.5,2C 665.686,6.52403 678.519,18.024 685,36.5C 684.274,355.74 684.441,674.906 685.5,994C 683.799,1022.7 669.466,1042.03 642.5,1052C 639.833,1052.33 637.167,1052.67 634.5,1053C 437.167,1053.67 239.833,1053.67 42.5,1053C 27.9238,1049.1 16.7571,1040.6 9,1027.5C 6.21067,1022.47 4.21067,1017.13 3,1011.5C 2.00077,1002.53 1.50077,993.531 1.5,984.5C 2.61472,668.167 2.78139,351.834 2,35.5C 3.21735,26.6166 7.38401,19.4499 14.5,14C 23.7345,6.70993 34.0678,2.20993 45.5,0.5 Z"/></g>
<g><path style="opacity:1" fill="#fefefe" d="M 42.5,5.5 C 243.5,5.98485 444.5,6.48485 645.5,7C 661.811,10.6415 673.311,20.1415 680,35.5C 680.667,356.167 680.667,676.833 680,997.5C 677.215,1023.9 663.048,1040.73 637.5,1048C 438.833,1048.67 240.167,1048.67 41.5,1048C 22.3766,1040.54 10.8766,1026.71 7,1006.5C 6.83333,979 6.66667,951.5 6.5,924C 7.64238,627.166 7.80904,330.333 7,33.5C 10.3006,24.5307 16.1339,17.6973 24.5,13C 30.3281,9.78826 36.3281,7.28826 42.5,5.5 Z"/></g>
<g><path style="opacity:1" fill="#1f1f15" d="M 39.5,58.5 C 55.1789,59.7044 70.8455,59.7044 86.5,58.5C 90.8035,59.2095 95.1368,59.7095 99.5,60C 101.948,62.2545 103.281,65.0879 103.5,68.5C 88.3874,88.3905 77.2208,110.391 70,134.5C 68.249,144.188 66.5823,153.855 65,163.5C 62.4133,166.034 59.7467,166.034 57,163.5C 57.0046,148.143 59.3379,133.143 64,118.5C 71.4749,102.883 79.4749,87.5498 88,72.5C 88.49,71.2068 88.6567,69.8734 88.5,68.5C 74.496,68.3334 60.496,68.5001 46.5,69C 45.6896,74.7512 45.1896,80.5845 45,86.5C 42,89.1667 39,89.1667 36,86.5C 35.0007,79.1818 34.6674,71.8484 35,64.5C 35.8041,61.8541 37.3041,59.8541 39.5,58.5 Z"/></g>
<g><path style="opacity:1" fill="#1c1d13" d="M 189.5,137.5 C 203.791,135.237 216.291,138.904 227,148.5C 238.608,165.024 238.274,181.357 226,197.5C 222.796,200.369 219.963,203.535 217.5,207C 223.752,205.085 230.252,203.918 237,203.5C 246.512,203.336 254.845,206.336 262,212.5C 276.714,232.23 275.547,251.063 258.5,269C 234.829,282.998 217.329,277.498 206,252.5C 202.857,248.014 201.357,248.514 201.5,254C 203.467,269.055 207.967,283.221 215,296.5C 215.494,298.134 215.66,299.801 215.5,301.5C 204.663,300.395 193.83,300.395 183,301.5C 180.625,301.596 178.459,301.096 176.5,300C 182.356,289.444 186.856,278.277 190,266.5C 190.667,260.833 190.667,255.167 190,249.5C 186.273,257.123 181.439,263.956 175.5,270C 154.966,282.173 138.466,278.006 126,257.5C 117.4,238.911 120.567,222.744 135.5,209C 142.571,203.31 150.571,201.31 159.5,203C 164.945,204.205 170.278,205.705 175.5,207.5C 175.649,206.448 175.483,205.448 175,204.5C 158.709,190.673 154.709,174.007 163,154.5C 169.43,144.871 178.263,139.204 189.5,137.5 Z"/></g>
<g><path style="opacity:1" fill="#1d1d13" d="M 481.5,138.5 C 498.212,135.904 512.378,140.571 524,152.5C 533.052,167.518 532.386,182.185 522,196.5C 519.203,200.299 516.036,203.799 512.5,207C 519.309,205.973 526.142,204.806 533,203.5C 549.938,205.093 560.938,214.093 566,230.5C 568.103,246.526 563.27,260.026 551.5,271C 541.2,277.327 530.2,278.993 518.5,276C 514.701,273.203 511.201,270.036 508,266.5C 504.21,261.223 500.71,255.89 497.5,250.5C 496.734,256.145 496.901,261.812 498,267.5C 501.634,279.419 505.8,291.085 510.5,302.5C 497.345,301.251 484.345,301.251 471.5,302.5C 474.779,292.609 478.613,282.942 483,273.5C 484.748,267.106 485.914,260.606 486.5,254C 486.491,252.596 485.991,251.43 485,250.5C 482.223,253.718 480.223,257.385 479,261.5C 459.482,283.162 440.482,282.829 422,260.5C 414.508,245.599 414.841,230.932 423,216.5C 434.889,203.255 449.056,200.088 465.5,207C 467.167,207.667 468.833,207.667 470.5,207C 466.333,202.167 462.167,197.333 458,192.5C 447.172,166.103 455.005,148.103 481.5,138.5 Z"/></g>
<g><path style="opacity:1" fill="#1e1e14" d="M 65.5,246.5 C 63.3926,245.532 61.0593,245.198 58.5,245.5C 58.5,244.5 58.5,243.5 58.5,242.5C 58.7553,239.984 59.5886,237.65 61,235.5C 61.6667,233.167 61.6667,230.833 61,228.5C 54.5525,236.327 47.0525,237.494 38.5,232C 33.3958,225.898 32.2292,219.064 35,211.5C 39.3626,205.034 45.5293,202.2 53.5,203C 47.8517,194.641 48.1851,186.641 54.5,179C 63.9255,173.574 72.4255,174.74 80,182.5C 81.0223,184.702 81.5223,187.035 81.5,189.5C 80.9671,194.626 79.9671,199.626 78.5,204.5C 92.7804,203.277 98.9471,209.61 97,223.5C 93.9556,234.309 87.1222,237.809 76.5,234C 74,231.5 71.5,229 69,226.5C 68.6859,232.571 70.1859,238.237 73.5,243.5C 71.3527,245.663 68.686,246.663 65.5,246.5 Z"/></g>
<g><path style="opacity:1" fill="#a4a4a0" d="M 58.5,242.5 C 58.5,243.5 58.5,244.5 58.5,245.5C 61.0593,245.198 63.3926,245.532 65.5,246.5C 62.8333,246.5 60.1667,246.5 57.5,246.5C 57.2322,244.901 57.5655,243.568 58.5,242.5 Z"/></g>
<g><path style="opacity:1" fill="#1c1d13" d="M 336.5,289.5 C 352.311,287.714 365.811,292.381 377,303.5C 384.269,316.743 384.269,330.076 377,343.5C 373.398,348.938 369.232,353.938 364.5,358.5C 365,358.833 365.5,359.167 366,359.5C 387.221,349.801 403.887,354.801 416,374.5C 421.807,392.732 417.974,408.565 404.5,422C 380.381,434.693 362.881,428.526 352,403.5C 349.106,402.385 347.939,403.552 348.5,407C 351.302,423.073 356.302,438.407 363.5,453C 350.499,452.246 337.499,452.412 324.5,453.5C 328.275,440.008 332.775,426.675 338,413.5C 338.667,409.167 338.667,404.833 338,400.5C 333.019,408.958 327.186,416.791 320.5,424C 310.587,428.796 300.253,429.796 289.5,427C 276.95,418.071 269.95,405.905 268.5,390.5C 270.805,366.02 284.138,354.187 308.5,355C 312.743,356.303 316.91,357.803 321,359.5C 322.059,359.37 322.892,358.87 323.5,358C 309.842,347.021 304.009,332.854 306,315.5C 311.171,300.819 321.338,292.153 336.5,289.5 Z"/></g>
<g><path style="opacity:1" fill="#1c1d13" d="M 214.5,606.5 C 212.721,608.344 210.388,609.01 207.5,608.5C 196.447,608.718 185.447,608.718 174.5,608.5C 179.835,602.158 182.669,594.825 183,586.5C 188.968,576.964 191.301,566.63 190,555.5C 185.893,562.604 181.393,569.438 176.5,576C 161.722,586.731 147.055,586.397 132.5,575C 116.241,555.422 116.574,536.089 133.5,517C 146.286,509.229 159.62,508.396 173.5,514.5C 174.167,514.167 174.833,513.833 175.5,513.5C 166.593,505.685 160.759,496.019 158,484.5C 156.268,472.865 159.435,462.865 167.5,454.5C 189.024,440.168 209.524,441.502 229,458.5C 235.985,471.248 236.318,484.248 230,497.5C 225.69,503.311 221.19,508.977 216.5,514.5C 216.833,514.833 217.167,515.167 217.5,515.5C 236.387,506.268 252.554,509.601 266,525.5C 275.045,545.227 271.878,562.727 256.5,578C 246.39,583.656 235.723,584.989 224.5,582C 219.667,578.5 214.833,575 210,571.5C 208.271,565.703 205.271,560.703 201,556.5C 200.744,565.705 202.077,574.705 205,583.5C 208.72,590.94 211.887,598.607 214.5,606.5 Z"/></g>
<g><path style="opacity:1" fill="#1c1d13" d="M 482.5,445.5 C 497.818,443.614 510.985,447.948 522,458.5C 531.6,472.289 531.933,486.289 523,500.5C 518.978,505.021 515.144,509.688 511.5,514.5C 511.833,514.833 512.167,515.167 512.5,515.5C 528.95,508.214 543.783,510.548 557,522.5C 566.831,535.95 568.164,550.283 561,565.5C 550.468,583.03 535.634,588.53 516.5,582C 507.797,575.966 501.297,568.133 497,558.5C 495.42,561.972 495.087,565.638 496,569.5C 496.539,572.529 497.206,575.529 498,578.5C 502.126,589.081 505.959,599.747 509.5,610.5C 502.601,610.364 495.767,609.697 489,608.5C 483.173,609 477.339,609.333 471.5,609.5C 475.546,596.191 479.713,582.858 484,569.5C 485.177,565.48 485.344,561.48 484.5,557.5C 479.939,565.41 474.272,572.577 467.5,579C 445.16,589.665 428.66,583.831 418,561.5C 411.998,543.51 416.165,528.343 430.5,516C 439.198,510.385 448.532,509.052 458.5,512C 461.758,513.467 465.092,514.633 468.5,515.5C 468.657,514.127 468.49,512.793 468,511.5C 452.108,498.488 448.108,482.488 456,463.5C 462.225,453.639 471.058,447.639 482.5,445.5 Z"/></g>
<g><path style="opacity:1" fill="#7a7a74" d="M 214.5,606.5 C 215.404,607.209 215.737,608.209 215.5,609.5C 212.615,609.806 209.948,609.473 207.5,608.5C 210.388,609.01 212.721,608.344 214.5,606.5 Z"/></g>
<g><path style="opacity:1" fill="#1c1d13" d="M 175.5,751.5 C 188.182,754.124 200.849,754.124 213.5,751.5C 214.631,753.074 214.798,754.741 214,756.5C 208.264,767.64 203.93,779.307 201,791.5C 200.172,795.871 200.339,800.205 201.5,804.5C 205.152,799.874 208.319,794.874 211,789.5C 228.277,773.299 245.277,773.632 262,790.5C 273.564,807.715 273.231,824.715 261,841.5C 254.139,848.064 245.972,851.397 236.5,851.5C 229.619,850.939 222.953,849.772 216.5,848C 223.167,855.003 228.667,862.836 233,871.5C 236.757,897.169 225.923,912.336 200.5,917C 186.04,918.023 173.54,913.523 163,903.5C 151.458,882.342 155.125,864.342 174,849.5C 174.483,848.552 174.649,847.552 174.5,846.5C 164.873,850.265 154.873,851.432 144.5,850C 132.651,846.481 125.151,838.648 122,826.5C 117.47,809.759 121.637,795.592 134.5,784C 158.446,771.649 175.946,777.816 187,802.5C 188.011,803.337 189.178,803.67 190.5,803.5C 189.8,786.235 184.967,770.235 176,755.5C 175.51,754.207 175.343,752.873 175.5,751.5 Z"/></g>
<g><path style="opacity:1" fill="#1d1d13" d="M 494.5,804.5 C 495.26,806.985 496.26,806.985 497.5,804.5C 497.799,800.895 498.965,797.561 501,794.5C 519.629,772.195 538.629,771.861 558,793.5C 567.879,811.373 566.379,828.206 553.5,844C 546.404,849.31 538.404,852.144 529.5,852.5C 523.131,851.303 516.798,850.137 510.5,849C 518.117,855.733 523.617,863.9 527,873.5C 530.615,891.718 524.448,905.218 508.5,914C 490.888,920.734 474.721,918.234 460,906.5C 449.99,894.419 447.99,881.085 454,866.5C 458.104,859.987 462.937,853.987 468.5,848.5C 468.167,848.167 467.833,847.833 467.5,847.5C 453.853,854.337 440.52,853.837 427.5,846C 409.576,824.775 410.242,804.108 429.5,784C 433.079,782.738 436.412,781.071 439.5,779C 452.503,776.205 463.67,779.372 473,788.5C 476.177,793.528 479.344,798.528 482.5,803.5C 482.56,804.043 482.893,804.376 483.5,804.5C 484.809,800.351 484.809,796.351 483.5,792.5C 483.453,789.432 482.953,786.432 482,783.5C 478.056,773.164 474.223,762.83 470.5,752.5C 482.167,755.088 493.833,755.088 505.5,752.5C 508.693,752.188 509.86,753.522 509,756.5C 504.854,765.379 500.854,774.379 497,783.5C 495.277,790.395 494.444,797.395 494.5,804.5 Z"/></g>
<g><path style="opacity:1" fill="#7d7d78" d="M 483.5,792.5 C 484.809,796.351 484.809,800.351 483.5,804.5C 482.893,804.376 482.56,804.043 482.5,803.5C 483.482,800.038 483.815,796.371 483.5,792.5 Z"/></g>
<g><path style="opacity:1" fill="#1e1e14" d="M 615.5,804.5 C 619.18,805.572 622.847,805.572 626.5,804.5C 628,804.453 629,805.119 629.5,806.5C 626.635,812.577 625.135,818.911 625,825.5C 629.298,817.6 635.798,814.433 644.5,816C 658.031,826.662 657.698,836.996 643.5,847C 640.05,847.175 636.717,847.342 633.5,847.5C 637.373,852.84 638.54,858.84 637,865.5C 634.885,871.163 630.719,874.329 624.5,875C 613.482,875.986 607.149,870.986 605.5,860C 606.359,855.788 607.359,851.622 608.5,847.5C 595.172,847.342 589.006,840.676 590,827.5C 593.507,817.828 600.34,813.995 610.5,816C 613.279,818.779 616.113,821.613 619,824.5C 619.458,821.442 619.124,818.442 618,815.5C 615.272,812.114 614.439,808.448 615.5,804.5 Z"/></g>
<g><path style="opacity:1" fill="#c4a344" d="M 494.5,804.5 C 495.5,804.5 496.5,804.5 497.5,804.5C 496.26,806.985 495.26,806.985 494.5,804.5 Z"/></g>
<g><path style="opacity:1" fill="#1f1f15" d="M 596.5,984.5 C 595.957,984.56 595.624,984.893 595.5,985.5C 609.661,986.826 623.661,986.826 637.5,985.5C 638.117,985.389 638.617,985.056 639,984.5C 639.333,979.167 639.667,973.833 640,968.5C 642.76,966.297 645.76,965.964 649,967.5C 649.667,976.167 649.667,984.833 649,993.5C 648.5,994 648,994.5 647.5,995C 627.167,995.667 606.833,995.667 586.5,995C 582.304,992.019 581.471,988.186 584,983.5C 604.882,956.388 616.882,925.722 620,891.5C 623,890.167 626,890.167 629,891.5C 628.249,912.84 623.249,933.173 614,952.5C 608.41,963.349 602.577,974.016 596.5,984.5 Z"/></g>
<g><path style="opacity:1" fill="#8c8c87" d="M 596.5,984.5 C 609.99,985.496 623.656,985.829 637.5,985.5C 623.661,986.826 609.661,986.826 595.5,985.5C 595.624,984.893 595.957,984.56 596.5,984.5 Z"/></g>
</svg>
