<?xml version="1.0" encoding="UTF-8"?>
<!DOCTYPE svg PUBLIC "-//W3C//DTD SVG 1.1//EN" "http://www.w3.org/Graphics/SVG/1.1/DTD/svg11.dtd">
<svg xmlns="http://www.w3.org/2000/svg" version="1.1" width="190px" height="265px" style="shape-rendering:geometricPrecision; text-rendering:geometricPrecision; image-rendering:optimizeQuality; fill-rule:evenodd; clip-rule:evenodd" xmlns:xlink="http://www.w3.org/1999/xlink">
<g><path style="opacity:1" fill="#1a1a1c" d="M -0.5,-0.5 C 62.8333,-0.5 126.167,-0.5 189.5,-0.5C 189.5,87.8333 189.5,176.167 189.5,264.5C 126.167,264.5 62.8333,264.5 -0.5,264.5C -0.5,176.167 -0.5,87.8333 -0.5,-0.5 Z"/></g>
<g><path style="opacity:1" fill="#2d2a2a" d="M 54.5,109.5 C 59.1893,112.177 60.6893,116.177 59,121.5C 57.4613,123.641 56.128,125.641 55,127.5C 56.073,128.28 57.2396,128.113 58.5,127C 67.6107,124.79 71.7774,128.29 71,137.5C 69.9791,140.35 68.1458,142.35 65.5,143.5C 59.9061,144.257 55.7395,142.257 53,137.5C 52.3333,139.833 52.3333,142.167 53,144.5C 54.1449,147.432 54.9782,150.432 55.5,153.5C 52.1016,153.82 48.7683,153.487 45.5,152.5C 48.2753,147.751 49.2753,142.751 48.5,137.5C 45.4063,143.136 40.7396,144.969 34.5,143C 29.2345,137.593 29.2345,132.26 34.5,127C 38.285,126.785 41.9516,126.619 45.5,126.5C 39.6664,119.844 40.3331,114.011 47.5,109C 49.8848,108.444 52.2181,108.61 54.5,109.5 Z"/></g>
<g><path style="opacity:1" fill="#e8e9ed" d="M 156.5,47.5 C 157.449,48.9228 158.449,50.4228 159.5,52C 158.783,54.659 157.783,57.159 156.5,59.5C 156.608,60.4419 156.941,61.2753 157.5,62C 156.726,64.405 156.226,66.905 156,69.5C 155.82,66.0445 155.153,62.7111 154,59.5C 153.667,63.5 153.333,67.5 153,71.5C 152.667,69.5 152.333,67.5 152,65.5C 151.25,75.4945 150.584,85.4945 150,95.5C 149.333,74.1667 148.667,74.1667 148,95.5C 147.667,90.1667 147.333,84.8333 147,79.5C 146.5,87.4931 146.334,95.4931 146.5,103.5C 147.5,103.5 148.5,103.5 149.5,103.5C 150.259,107.906 148.925,111.239 145.5,113.5C 139.541,106.947 133.707,106.947 128,113.5C 127.833,114.667 127.667,115.833 127.5,117C 128.322,120.766 129.489,124.266 131,127.5C 127.591,126.378 124.091,126.211 120.5,127C 113.929,132.153 113.929,137.486 120.5,143C 127.099,144.866 131.765,142.7 134.5,136.5C 135.641,138.421 135.808,140.421 135,142.5C 133.722,146.165 132.556,149.832 131.5,153.5C 134.898,153.82 138.232,153.487 141.5,152.5C 138.78,147.382 137.78,142.049 138.5,136.5C 141.856,142.845 146.856,144.679 153.5,142C 158.424,137.697 158.758,133.03 154.5,128C 149.784,126.535 145.118,126.035 140.5,126.5C 144.111,123.34 145.777,119.34 145.5,114.5C 147.79,112.967 148.456,113.3 147.5,115.5C 148,116.5 148.5,117.5 149,118.5C 149.822,116.212 150.489,113.878 151,111.5C 151.252,114.667 151.418,117.667 151.5,120.5C 152.723,121.614 154.056,121.781 155.5,121C 154.5,120.667 153.5,120.333 152.5,120C 154.134,119.506 155.801,119.34 157.5,119.5C 157.687,121.564 158.187,123.564 159,125.5C 159.333,120.833 159.667,116.167 160,111.5C 160.667,122.167 161.333,122.167 162,111.5C 162.333,114.167 162.667,116.833 163,119.5C 163.83,114.192 164.33,108.859 164.5,103.5C 165.833,103.5 167.167,103.5 168.5,103.5C 168.333,119.503 168.5,135.503 169,151.5C 169.667,130.167 170.333,130.167 171,151.5C 171.667,140.833 172.333,140.833 173,151.5C 173.333,148.833 173.667,146.167 174,143.5C 174.665,148.156 175.165,152.823 175.5,157.5C 174.167,157.5 172.833,157.5 171.5,157.5C 171.5,156.167 171.5,154.833 171.5,153.5C 170.5,153.5 169.5,153.5 168.5,153.5C 167.163,148.231 166.33,139.564 166,127.5C 165.497,148.802 164.664,148.802 163.5,127.5C 162.336,148.802 161.503,148.802 161,127.5C 159.778,140.816 159.445,154.15 160,167.5C 161,146.167 162,146.167 163,167.5C 163.667,146.167 164.333,146.167 165,167.5C 165.667,156.833 166.333,156.833 167,167.5C 167.667,156.833 168.333,156.833 169,167.5C 170,156.833 171,156.833 172,167.5C 172.182,164.774 172.682,162.107 173.5,159.5C 173.833,160.833 174.167,162.167 174.5,163.5C 173.833,171.5 173.167,179.5 172.5,187.5C 172.436,189.389 172.936,191.056 174,192.5C 175.311,181.658 175.978,170.658 176,159.5C 176.667,180.833 177.333,180.833 178,159.5C 178.5,172.829 178.667,186.163 178.5,199.5C 181.598,199.413 181.932,199.913 179.5,201C 180.343,202.787 180.51,204.62 180,206.5C 181,205.5 182,204.5 183,203.5C 183.167,203.833 183.333,204.167 183.5,204.5C 181.848,206.446 181.015,208.446 181,210.5C 180.665,207.81 179.499,207.143 177.5,208.5C 177.663,210.857 177.497,213.19 177,215.5C 176.667,215.167 176.333,214.833 176,214.5C 173.732,217.085 172.566,220.085 172.5,223.5C 163.636,222.152 159.803,225.819 161,234.5C 161.785,236.286 162.951,237.786 164.5,239C 168.317,240.023 171.817,239.523 175,237.5C 175.454,243.712 172.621,246.546 166.5,246C 164.825,242.68 162.825,242.18 160.5,244.5C 163.022,248.593 166.689,250.26 171.5,249.5C 168.977,250.254 166.311,250.92 163.5,251.5C 162.186,250.687 161.019,249.687 160,248.5C 160.837,251.242 160.67,253.575 159.5,255.5C 158.671,250.198 158.171,244.864 158,239.5C 157.161,260.802 155.994,260.802 154.5,239.5C 153.336,260.802 152.503,260.802 152,239.5C 151.667,244.833 151.333,250.167 151,255.5C 150.667,247.833 150.333,240.167 150,232.5C 149.598,233.872 149.098,235.205 148.5,236.5C 149.593,240.108 149.76,243.775 149,247.5C 148.333,236.833 147.667,236.833 147,247.5C 146.667,244.833 146.333,242.167 146,239.5C 145.333,244.833 144.667,250.167 144,255.5C 143.505,253.527 143.338,251.527 143.5,249.5C 140.5,249.5 137.5,249.5 134.5,249.5C 134.5,251.5 134.5,253.5 134.5,255.5C 132.5,255.5 130.5,255.5 128.5,255.5C 128.662,253.473 128.495,251.473 128,249.5C 126.027,252.939 124.027,252.605 122,248.5C 121.5,240.173 121.334,231.84 121.5,223.5C 122.338,223.158 122.672,222.492 122.5,221.5C 125.866,221.212 129.2,221.046 132.5,221C 126.719,225.686 126.053,231.019 130.5,237C 135.494,240.666 139.994,240.166 144,235.5C 146.546,230.014 145.713,225.181 141.5,221C 142.333,219.216 143.333,219.216 144.5,221C 151.549,222.646 155.882,219.979 157.5,213C 155.4,205.621 150.733,202.954 143.5,205C 141.251,206.745 139.584,208.912 138.5,211.5C 137.627,205.877 138.627,200.544 141.5,195.5C 142.043,195.44 142.376,195.107 142.5,194.5C 138.5,193.167 134.5,193.167 130.5,194.5C 130.624,195.107 130.957,195.44 131.5,195.5C 134.181,200.08 135.015,205.08 134,210.5C 131.081,204.975 126.581,203.142 120.5,205C 119.295,206.376 117.962,207.542 116.5,208.5C 116.44,207.957 116.107,207.624 115.5,207.5C 114.702,209.078 114.202,210.744 114,212.5C 113.24,208.775 113.407,205.108 114.5,201.5C 112.615,200.017 111.615,198.017 111.5,195.5C 110.834,188.847 110.334,182.181 110,175.5C 109.497,196.802 108.664,196.802 107.5,175.5C 106.336,196.802 105.503,196.802 105,175.5C 104.667,180.833 104.333,186.167 104,191.5C 103.503,188.854 103.336,186.187 103.5,183.5C 103.666,175.493 103.5,167.493 103,159.5C 102.144,170.107 100.978,170.107 99.5,159.5C 98.8333,162.167 98.1667,164.833 97.5,167.5C 97.1667,166.167 96.8333,164.833 96.5,163.5C 97.5078,148.778 98.8412,134.111 100.5,119.5C 101.5,119.5 102.5,119.5 103.5,119.5C 103.334,127.507 103.5,135.507 104,143.5C 104.667,132.833 105.333,132.833 106,143.5C 106.558,130.132 107.558,116.799 109,103.5C 109.333,108.833 109.667,114.167 110,119.5C 110.667,108.833 111.333,98.1667 112,87.5C 112.512,98.1059 113.345,98.1059 114.5,87.5C 115.978,98.1073 117.144,98.1073 118,87.5C 118.636,93.5309 119.47,99.5309 120.5,105.5C 121.308,105.192 121.975,104.692 122.5,104C 121.718,101.26 121.218,98.4262 121,95.5C 120.5,82.8377 120.333,70.1711 120.5,57.5C 126.694,59.0074 131.194,57.0074 134,51.5C 134.882,56.3525 134.382,61.0192 132.5,65.5C 131.596,66.209 131.263,67.209 131.5,68.5C 135.226,68.8226 138.893,68.4892 142.5,67.5C 142.376,66.8933 142.043,66.56 141.5,66.5C 138.597,61.814 137.597,56.814 138.5,51.5C 142.97,59.368 148.636,60.368 155.5,54.5C 156.374,52.2534 156.708,49.9201 156.5,47.5 Z"/></g>
<g><path style="opacity:1" fill="#ecedf1" d="M 1.5,7.5 C 2.32923,15.3228 2.82923,23.3228 3,31.5C 3.33333,26.1667 3.66667,20.8333 4,15.5C 5.66391,31.4559 6.66391,47.4559 7,63.5C 7.33333,62.8333 7.66667,62.1667 8,61.5C 8.81286,64.7661 10.6462,65.2661 13.5,63C 10.0626,62.3507 9.89598,61.8507 13,61.5C 14.3756,61.6842 15.2089,62.3509 15.5,63.5C 15.5,64.8333 16.1667,65.5 17.5,65.5C 18.1086,70.1866 19.9419,70.5199 23,66.5C 23.4983,69.8168 23.665,73.1501 23.5,76.5C 26.7107,76.988 29.544,76.3213 32,74.5C 33.9717,75.3052 35.4717,76.6385 36.5,78.5C 35.675,79.3857 34.675,79.719 33.5,79.5C 33.5,93.1667 33.5,106.833 33.5,120.5C 32.8826,120.389 32.3826,120.056 32,119.5C 30.4973,106.196 30.3306,92.8624 31.5,79.5C 30.5,79.5 29.5,79.5 28.5,79.5C 29.4683,95.7339 29.8016,111.901 29.5,128C 29,128.5 28.5,129 28,129.5C 27.5774,128.044 26.7441,127.544 25.5,128C 24.7511,129.734 24.2511,131.567 24,133.5C 23.6667,115.5 23.3333,97.5 23,79.5C 22.6667,90.1667 22.3333,100.833 22,111.5C 21.6667,106.167 21.3333,100.833 21,95.5C 19.8191,104.889 18.3191,114.222 16.5,123.5C 17.4992,135.486 18.3325,147.486 19,159.5C 19.3333,154.167 19.6667,148.833 20,143.5C 20.4446,170.172 21.1112,196.839 22,223.5C 22.3333,215.5 22.6667,207.5 23,199.5C 23.4974,202.146 23.6641,204.813 23.5,207.5C 24.8333,207.5 26.1667,207.5 27.5,207.5C 27.6713,210.797 27.0046,211.131 25.5,208.5C 24.3847,210.489 24.718,212.322 26.5,214C 25.4962,215.798 24.9962,217.632 25,219.5C 26.1131,218.289 27.2798,218.289 28.5,219.5C 29.1476,221.149 30.1476,222.482 31.5,223.5C 32.5237,222.147 33.857,221.48 35.5,221.5C 39.2044,221.276 42.871,221.11 46.5,221C 39.5073,227.529 39.8407,233.529 47.5,239C 49.9291,239.703 52.2625,239.537 54.5,238.5C 54.7261,241.249 54.3928,243.916 53.5,246.5C 55.1045,248.179 55.7711,250.179 55.5,252.5C 52.8333,252.5 50.1667,252.5 47.5,252.5C 47.5,253.5 47.5,254.5 47.5,255.5C 44.5918,255.738 42.2585,254.738 40.5,252.5C 39.7492,253.376 39.2492,254.376 39,255.5C 38.3333,244.833 37.6667,244.833 37,255.5C 36.3333,244.833 35.6667,244.833 35,255.5C 34.6667,250.167 34.3333,244.833 34,239.5C 33.8989,244.946 33.2323,250.279 32,255.5C 31.5026,252.854 31.3359,250.187 31.5,247.5C 28.8333,247.5 26.1667,247.5 23.5,247.5C 23.1667,250.167 22.8333,252.833 22.5,255.5C 16.4813,254.982 10.6479,255.649 5,257.5C 3.27846,257.389 3.11179,256.889 4.5,256C 3.55198,255.517 2.55198,255.351 1.5,255.5C 1.5,172.833 1.5,90.1667 1.5,7.5 Z"/></g>
<g><path style="opacity:1" fill="#e7e8ec" d="M 33.5,120.5 C 34.787,119.232 35.787,119.565 36.5,121.5C 37.1667,115.5 37.8333,109.5 38.5,103.5C 40.4879,104.289 40.8213,105.455 39.5,107C 40.7423,110.357 41.5756,110.19 42,106.5C 46.1483,107.771 50.3149,107.438 54.5,105.5C 54.3784,106.864 54.3784,108.197 54.5,109.5C 52.2181,108.61 49.8848,108.444 47.5,109C 40.3331,114.011 39.6664,119.844 45.5,126.5C 41.9516,126.619 38.285,126.785 34.5,127C 29.2345,132.26 29.2345,137.593 34.5,143C 40.7396,144.969 45.4063,143.136 48.5,137.5C 49.2753,142.751 48.2753,147.751 45.5,152.5C 48.7683,153.487 52.1016,153.82 55.5,153.5C 54.9782,150.432 54.1449,147.432 53,144.5C 52.3333,142.167 52.3333,139.833 53,137.5C 55.7395,142.257 59.9061,144.257 65.5,143.5C 65.7711,145.821 65.1045,147.821 63.5,149.5C 65.136,166.343 66.136,183.343 66.5,200.5C 66.3615,184.44 66.5281,168.107 67,151.5C 68.3859,169.799 68.8859,188.133 68.5,206.5C 62.1721,202.88 57.1721,204.213 53.5,210.5C 51.9755,205.223 52.6422,200.223 55.5,195.5C 52.1667,194.167 48.8333,194.167 45.5,195.5C 48.8503,200.378 50.017,205.711 49,211.5C 45.6912,204.52 40.5245,202.686 33.5,206C 29.0834,211.913 29.7501,217.079 35.5,221.5C 33.857,221.48 32.5237,222.147 31.5,223.5C 30.1476,222.482 29.1476,221.149 28.5,219.5C 27.2798,218.289 26.1131,218.289 25,219.5C 24.9962,217.632 25.4962,215.798 26.5,214C 24.718,212.322 24.3847,210.489 25.5,208.5C 27.0046,211.131 27.6713,210.797 27.5,207.5C 26.1667,207.5 24.8333,207.5 23.5,207.5C 23.6641,204.813 23.4974,202.146 23,199.5C 22.6667,207.5 22.3333,215.5 22,223.5C 21.1112,196.839 20.4446,170.172 20,143.5C 19.6667,148.833 19.3333,154.167 19,159.5C 18.3325,147.486 17.4992,135.486 16.5,123.5C 18.3191,114.222 19.8191,104.889 21,95.5C 21.3333,100.833 21.6667,106.167 22,111.5C 22.3333,100.833 22.6667,90.1667 23,79.5C 23.3333,97.5 23.6667,115.5 24,133.5C 24.2511,131.567 24.7511,129.734 25.5,128C 26.7441,127.544 27.5774,128.044 28,129.5C 28.5,129 29,128.5 29.5,128C 29.8016,111.901 29.4683,95.7339 28.5,79.5C 29.5,79.5 30.5,79.5 31.5,79.5C 30.3306,92.8624 30.4973,106.196 32,119.5C 32.3826,120.056 32.8826,120.389 33.5,120.5 Z"/></g>
<g><path style="opacity:1" fill="#6c6b70" d="M 132.5,65.5 C 133.514,66.7647 135.014,67.4313 137,67.5C 138.707,67.4915 140.207,67.1582 141.5,66.5C 142.043,66.56 142.376,66.8933 142.5,67.5C 138.893,68.4892 135.226,68.8226 131.5,68.5C 131.263,67.209 131.596,66.209 132.5,65.5 Z"/></g>
<g><path style="opacity:1" fill="#2f2f31" d="M 26.5,58.5 C 24.1206,61.1402 21.6206,61.1402 19,58.5C 18.3131,60.5675 18.4798,62.5675 19.5,64.5C 19.0431,65.2975 18.3764,65.6309 17.5,65.5C 16.1667,65.5 15.5,64.8333 15.5,63.5C 16.905,61.7749 17.405,59.7749 17,57.5C 15.1435,60.1189 12.6435,60.9523 9.5,60C 7.36353,54.4564 9.36353,52.1231 15.5,53C 12.1667,48 13.5,45.6667 19.5,46C 22.1667,48.3333 22.1667,50.6667 19.5,53C 21.5,53.3333 23.5,53.6667 25.5,54C 26.3802,55.3561 26.7135,56.8561 26.5,58.5 Z"/></g>
<g><path style="opacity:1" fill="#ededf2" d="M 106.5,1.5 C 131.502,1.33336 156.502,1.50003 181.5,2C 184.232,2.39806 186.065,3.89806 187,6.5C 187.064,90.6661 186.564,174.666 185.5,258.5C 185.5,246.833 185.5,235.167 185.5,223.5C 181.173,222.803 178.506,224.47 177.5,228.5C 176.194,226.527 174.527,224.861 172.5,223.5C 172.566,220.085 173.732,217.085 176,214.5C 176.333,214.833 176.667,215.167 177,215.5C 177.497,213.19 177.663,210.857 177.5,208.5C 179.499,207.143 180.665,207.81 181,210.5C 181.015,208.446 181.848,206.446 183.5,204.5C 183.333,204.167 183.167,203.833 183,203.5C 182,204.5 181,205.5 180,206.5C 180.51,204.62 180.343,202.787 179.5,201C 181.932,199.913 181.598,199.413 178.5,199.5C 178.667,186.163 178.5,172.829 178,159.5C 177.333,180.833 176.667,180.833 176,159.5C 175.978,170.658 175.311,181.658 174,192.5C 172.936,191.056 172.436,189.389 172.5,187.5C 173.167,179.5 173.833,171.5 174.5,163.5C 174.167,162.167 173.833,160.833 173.5,159.5C 172.682,162.107 172.182,164.774 172,167.5C 171,156.833 170,156.833 169,167.5C 168.333,156.833 167.667,156.833 167,167.5C 166.333,156.833 165.667,156.833 165,167.5C 164.333,146.167 163.667,146.167 163,167.5C 162,146.167 161,146.167 160,167.5C 159.445,154.15 159.778,140.816 161,127.5C 161.503,148.802 162.336,148.802 163.5,127.5C 164.664,148.802 165.497,148.802 166,127.5C 166.33,139.564 167.163,148.231 168.5,153.5C 169.5,153.5 170.5,153.5 171.5,153.5C 171.5,154.833 171.5,156.167 171.5,157.5C 172.833,157.5 174.167,157.5 175.5,157.5C 175.165,152.823 174.665,148.156 174,143.5C 173.667,146.167 173.333,148.833 173,151.5C 172.333,140.833 171.667,140.833 171,151.5C 170.333,130.167 169.667,130.167 169,151.5C 168.5,135.503 168.333,119.503 168.5,103.5C 167.167,103.5 165.833,103.5 164.5,103.5C 164.33,108.859 163.83,114.192 163,119.5C 162.667,116.833 162.333,114.167 162,111.5C 161.333,122.167 160.667,122.167 160,111.5C 159.667,116.167 159.333,120.833 159,125.5C 158.187,123.564 157.687,121.564 157.5,119.5C 155.801,119.34 154.134,119.506 152.5,120C 153.5,120.333 154.5,120.667 155.5,121C 154.056,121.781 152.723,121.614 151.5,120.5C 151.418,117.667 151.252,114.667 151,111.5C 150.489,113.878 149.822,116.212 149,118.5C 148.5,117.5 148,116.5 147.5,115.5C 148.456,113.3 147.79,112.967 145.5,114.5C 145.5,114.167 145.5,113.833 145.5,113.5C 148.925,111.239 150.259,107.906 149.5,103.5C 148.5,103.5 147.5,103.5 146.5,103.5C 146.334,95.4931 146.5,87.4931 147,79.5C 147.333,84.8333 147.667,90.1667 148,95.5C 148.667,74.1667 149.333,74.1667 150,95.5C 150.584,85.4945 151.25,75.4945 152,65.5C 152.333,67.5 152.667,69.5 153,71.5C 153.333,67.5 153.667,63.5 154,59.5C 155.153,62.7111 155.82,66.0445 156,69.5C 156.226,66.905 156.726,64.405 157.5,62C 156.941,61.2753 156.608,60.4419 156.5,59.5C 157.783,57.159 158.783,54.659 159.5,52C 158.449,50.4228 157.449,48.9228 156.5,47.5C 156.5,46.8333 156.5,46.1667 156.5,45.5C 158.375,39.0502 159.375,31.7169 159.5,23.5C 161.5,23.5 163.5,23.5 165.5,23.5C 165.187,20.7531 165.52,18.0865 166.5,15.5C 167.492,19.7828 167.826,24.1161 167.5,28.5C 170.167,28.5 172.833,28.5 175.5,28.5C 175.334,21.4921 175.5,14.4921 176,7.5C 176.903,6.29857 178.069,5.46524 179.5,5C 178.216,4.31621 177.049,4.48288 176,5.5C 175.517,4.55198 175.351,3.55198 175.5,2.5C 147.485,2.20019 119.485,2.53353 91.5,3.5C 79.5149,2.75042 67.5149,2.25042 55.5,2C 72.4967,1.50006 89.4967,1.3334 106.5,1.5 Z"/></g>
<g><path style="opacity:1" fill="#2f2d2d" d="M 156.5,45.5 C 156.5,46.1667 156.5,46.8333 156.5,47.5C 156.708,49.9201 156.374,52.2534 155.5,54.5C 148.636,60.368 142.97,59.368 138.5,51.5C 137.597,56.814 138.597,61.814 141.5,66.5C 140.207,67.1582 138.707,67.4915 137,67.5C 135.014,67.4313 133.514,66.7647 132.5,65.5C 134.382,61.0192 134.882,56.3525 134,51.5C 131.194,57.0074 126.694,59.0074 120.5,57.5C 119.167,56.8333 118.167,55.8333 117.5,54.5C 114.108,47.0215 116.441,42.3548 124.5,40.5C 126.798,40.732 128.965,41.3986 131,42.5C 131.5,42.1667 132,41.8333 132.5,41.5C 127.955,37.8388 126.455,33.1721 128,27.5C 132.924,22.6531 138.091,22.3198 143.5,26.5C 146.472,31.8329 145.806,36.6663 141.5,41C 142.333,42.7844 143.333,42.7844 144.5,41C 149.761,39.4742 153.761,40.9742 156.5,45.5 Z"/></g>
<g><path style="opacity:1" fill="#e8e9ec" d="M 106.5,1.5 C 89.4967,1.3334 72.4967,1.50006 55.5,2C 67.5149,2.25042 79.5149,2.75042 91.5,3.5C 119.485,2.53353 147.485,2.20019 175.5,2.5C 175.351,3.55198 175.517,4.55198 176,5.5C 177.049,4.48288 178.216,4.31621 179.5,5C 178.069,5.46524 176.903,6.29857 176,7.5C 175.5,14.4921 175.334,21.4921 175.5,28.5C 172.833,28.5 170.167,28.5 167.5,28.5C 167.826,24.1161 167.492,19.7828 166.5,15.5C 165.52,18.0865 165.187,20.7531 165.5,23.5C 163.5,23.5 161.5,23.5 159.5,23.5C 159.375,31.7169 158.375,39.0502 156.5,45.5C 153.761,40.9742 149.761,39.4742 144.5,41C 143.333,42.7844 142.333,42.7844 141.5,41C 145.806,36.6663 146.472,31.8329 143.5,26.5C 138.091,22.3198 132.924,22.6531 128,27.5C 126.455,33.1721 127.955,37.8388 132.5,41.5C 132,41.8333 131.5,42.1667 131,42.5C 128.965,41.3986 126.798,40.732 124.5,40.5C 116.441,42.3548 114.108,47.0215 117.5,54.5C 116.903,54.7352 116.57,55.2352 116.5,56C 117.689,57.8948 118.689,59.8948 119.5,62C 118.712,65.0757 118.212,68.2423 118,71.5C 117.931,64.9346 116.931,58.6013 115,52.5C 113.749,58.7248 113.083,65.0582 113,71.5C 112.667,66.5 112.333,61.5 112,56.5C 111.51,57.7932 111.343,59.1266 111.5,60.5C 108.833,60.5 106.167,60.5 103.5,60.5C 103.5,53.5 103.5,46.5 103.5,39.5C 100.833,39.5 98.1667,39.5 95.5,39.5C 95.5,42.1667 95.5,44.8333 95.5,47.5C 92.5,47.5 89.5,47.5 86.5,47.5C 86.3323,68.8229 85.8323,68.8229 85,47.5C 84.3333,68.8333 83.6667,68.8333 83,47.5C 82.3333,68.8333 81.6667,68.8333 81,47.5C 80.6667,52.8333 80.3333,58.1667 80,63.5C 79.5003,55.5069 79.3336,47.5069 79.5,39.5C 78.5,39.5 77.5,39.5 76.5,39.5C 76.5,42.1667 76.5,44.8333 76.5,47.5C 74.8333,47.5 73.1667,47.5 71.5,47.5C 68.0958,40.4168 62.9291,38.7502 56,42.5C 55.5,42.1667 55,41.8333 54.5,41.5C 60.1808,36.5719 60.8474,31.0719 56.5,25C 48.4015,21.2609 43.4015,23.5942 41.5,32C 41.8684,35.5705 43.2017,38.7371 45.5,41.5C 45.1667,41.8333 44.8333,42.1667 44.5,42.5C 32.5278,38.9738 28.3611,43.3072 32,55.5C 38.9308,60.2045 44.4308,58.8712 48.5,51.5C 49.6309,53.0745 49.7975,54.7412 49,56.5C 48.1779,58.7885 47.5112,61.1218 47,63.5C 46.6232,64.9423 45.7899,65.9423 44.5,66.5C 43.2749,66.9689 42.2749,66.3022 41.5,64.5C 40.2612,66.0072 40.5946,67.1739 42.5,68C 41.552,68.4828 40.552,68.6495 39.5,68.5C 38.9011,65.8315 37.2344,63.9982 34.5,63C 35.1667,62.6667 35.8333,62.3333 36.5,62C 34.2005,60.2752 32.0338,58.4418 30,56.5C 28.8873,57.305 27.7206,57.9717 26.5,58.5C 26.7135,56.8561 26.3802,55.3561 25.5,54C 23.5,53.6667 21.5,53.3333 19.5,53C 22.1667,50.6667 22.1667,48.3333 19.5,46C 13.5,45.6667 12.1667,48 15.5,53C 9.36353,52.1231 7.36353,54.4564 9.5,60C 12.6435,60.9523 15.1435,60.1189 17,57.5C 17.405,59.7749 16.905,61.7749 15.5,63.5C 15.2089,62.3509 14.3756,61.6842 13,61.5C 9.89598,61.8507 10.0626,62.3507 13.5,63C 10.6462,65.2661 8.81286,64.7661 8,61.5C 7.66667,62.1667 7.33333,62.8333 7,63.5C 6.66391,47.4559 5.66391,31.4559 4,15.5C 3.66667,20.8333 3.33333,26.1667 3,31.5C 2.82923,23.3228 2.32923,15.3228 1.5,7.5C 2.25269,4.14797 4.25269,1.98131 7.5,1C 40.6692,0.169199 73.6692,0.335865 106.5,1.5 Z"/></g>
<g><path style="opacity:1" fill="#2d2c2c" d="M 71.5,47.5 C 71.3531,50.7916 70.3531,53.7916 68.5,56.5C 62.2377,59.98 57.2377,58.6466 53.5,52.5C 53.1667,53.6667 52.8333,54.8333 52.5,56C 53.1145,60.29 54.1145,64.4567 55.5,68.5C 51.351,69.0803 47.6843,68.4136 44.5,66.5C 45.7899,65.9423 46.6232,64.9423 47,63.5C 47.5112,61.1218 48.1779,58.7885 49,56.5C 49.7975,54.7412 49.6309,53.0745 48.5,51.5C 44.4308,58.8712 38.9308,60.2045 32,55.5C 28.3611,43.3072 32.5278,38.9738 44.5,42.5C 44.8333,42.1667 45.1667,41.8333 45.5,41.5C 43.2017,38.7371 41.8684,35.5705 41.5,32C 43.4015,23.5942 48.4015,21.2609 56.5,25C 60.8474,31.0719 60.1808,36.5719 54.5,41.5C 55,41.8333 55.5,42.1667 56,42.5C 62.9291,38.7502 68.0958,40.4168 71.5,47.5 Z"/></g>
<g><path style="opacity:1" fill="#363638" d="M 14.5,12.5 C 19.6475,11.9081 23.6475,13.7414 26.5,18C 25.9747,18.6924 25.3081,19.1924 24.5,19.5C 21.7248,15.9226 18.3914,15.0892 14.5,17C 12.6218,18.9928 12.2885,21.1595 13.5,23.5C 24.6009,21.4334 28.4342,25.7667 25,36.5C 17.0551,41.529 11.7218,39.529 9,30.5C 8.33333,26.8333 8.33333,23.1667 9,19.5C 10.6665,17.0043 12.4998,14.671 14.5,12.5 Z"/></g>
<g><path style="opacity:1" fill="#e2e1e4" d="M 16.5,25.5 C 22.2919,25.7787 24.2919,28.612 22.5,34C 17.792,36.7899 14.4587,35.7899 12.5,31C 13.0074,28.4547 14.3407,26.6214 16.5,25.5 Z"/></g>
<g><path style="opacity:1" fill="#edeef2" d="M 117.5,54.5 C 118.167,55.8333 119.167,56.8333 120.5,57.5C 120.333,70.1711 120.5,82.8377 121,95.5C 121.218,98.4262 121.718,101.26 122.5,104C 121.975,104.692 121.308,105.192 120.5,105.5C 119.47,99.5309 118.636,93.5309 118,87.5C 117.144,98.1073 115.978,98.1073 114.5,87.5C 113.345,98.1059 112.512,98.1059 112,87.5C 111.333,98.1667 110.667,108.833 110,119.5C 109.667,114.167 109.333,108.833 109,103.5C 107.558,116.799 106.558,130.132 106,143.5C 105.333,132.833 104.667,132.833 104,143.5C 103.5,135.507 103.334,127.507 103.5,119.5C 102.5,119.5 101.5,119.5 100.5,119.5C 98.8412,134.111 97.5078,148.778 96.5,163.5C 96.8333,164.833 97.1667,166.167 97.5,167.5C 98.1667,164.833 98.8333,162.167 99.5,159.5C 100.978,170.107 102.144,170.107 103,159.5C 103.5,167.493 103.666,175.493 103.5,183.5C 102.683,181.031 102.183,178.365 102,175.5C 101.333,186.167 100.667,186.167 100,175.5C 99.3333,186.167 98.6667,186.167 98,175.5C 97.1707,186.146 96.6707,186.146 96.5,175.5C 95.5,175.5 94.5,175.5 93.5,175.5C 94.8243,167.568 95.4909,159.568 95.5,151.5C 90.1667,151.5 84.8333,151.5 79.5,151.5C 79.5,148.833 79.5,146.167 79.5,143.5C 78.1667,143.5 76.8333,143.5 75.5,143.5C 75.5,140.833 75.5,138.167 75.5,135.5C 76.552,135.649 77.552,135.483 78.5,135C 74.5754,130.636 72.7421,125.47 73,119.5C 72.8184,122.226 72.3184,124.893 71.5,127.5C 71.651,125.244 71.3176,123.244 70.5,121.5C 69.1667,122.833 67.8333,122.833 66.5,121.5C 65.3044,121.846 65.3044,122.346 66.5,123C 65.2411,123.982 63.9078,124.315 62.5,124C 64.1587,120.334 66.8253,119.167 70.5,120.5C 71.4114,114.841 71.2447,109.174 70,103.5C 69.6667,106.167 69.3333,108.833 69,111.5C 68.9378,102.086 68.1044,92.7522 66.5,83.5C 67.2488,77.8428 67.9155,72.1761 68.5,66.5C 68.3868,64.3587 67.7201,62.5253 66.5,61C 68.0368,59.8904 68.7035,58.3904 68.5,56.5C 70.3531,53.7916 71.3531,50.7916 71.5,47.5C 73.1667,47.5 74.8333,47.5 76.5,47.5C 76.5,44.8333 76.5,42.1667 76.5,39.5C 77.5,39.5 78.5,39.5 79.5,39.5C 79.3336,47.5069 79.5003,55.5069 80,63.5C 80.3333,58.1667 80.6667,52.8333 81,47.5C 81.6667,68.8333 82.3333,68.8333 83,47.5C 83.6667,68.8333 84.3333,68.8333 85,47.5C 85.8323,68.8229 86.3323,68.8229 86.5,47.5C 89.5,47.5 92.5,47.5 95.5,47.5C 95.5,44.8333 95.5,42.1667 95.5,39.5C 98.1667,39.5 100.833,39.5 103.5,39.5C 103.5,46.5 103.5,53.5 103.5,60.5C 106.167,60.5 108.833,60.5 111.5,60.5C 111.343,59.1266 111.51,57.7932 112,56.5C 112.333,61.5 112.667,66.5 113,71.5C 113.083,65.0582 113.749,58.7248 115,52.5C 116.931,58.6013 117.931,64.9346 118,71.5C 118.212,68.2423 118.712,65.0757 119.5,62C 118.689,59.8948 117.689,57.8948 116.5,56C 116.57,55.2352 116.903,54.7352 117.5,54.5 Z"/></g>
<g><path style="opacity:1" fill="#eaebef" d="M 68.5,56.5 C 68.7035,58.3904 68.0368,59.8904 66.5,61C 67.7201,62.5253 68.3868,64.3587 68.5,66.5C 67.9155,72.1761 67.2488,77.8428 66.5,83.5C 68.1044,92.7522 68.9378,102.086 69,111.5C 69.3333,108.833 69.6667,106.167 70,103.5C 71.2447,109.174 71.4114,114.841 70.5,120.5C 66.8253,119.167 64.1587,120.334 62.5,124C 63.9078,124.315 65.2411,123.982 66.5,123C 65.3044,122.346 65.3044,121.846 66.5,121.5C 67.8333,122.833 69.1667,122.833 70.5,121.5C 71.3176,123.244 71.651,125.244 71.5,127.5C 72.3184,124.893 72.8184,122.226 73,119.5C 72.7421,125.47 74.5754,130.636 78.5,135C 77.552,135.483 76.552,135.649 75.5,135.5C 75.5,138.167 75.5,140.833 75.5,143.5C 76.8333,143.5 78.1667,143.5 79.5,143.5C 79.5,146.167 79.5,148.833 79.5,151.5C 84.8333,151.5 90.1667,151.5 95.5,151.5C 95.4909,159.568 94.8243,167.568 93.5,175.5C 94.5,175.5 95.5,175.5 96.5,175.5C 96.6707,186.146 97.1707,186.146 98,175.5C 98.6667,186.167 99.3333,186.167 100,175.5C 100.667,186.167 101.333,186.167 102,175.5C 102.183,178.365 102.683,181.031 103.5,183.5C 103.336,186.187 103.503,188.854 104,191.5C 104.333,186.167 104.667,180.833 105,175.5C 105.503,196.802 106.336,196.802 107.5,175.5C 108.664,196.802 109.497,196.802 110,175.5C 110.334,182.181 110.834,188.847 111.5,195.5C 111.615,198.017 112.615,200.017 114.5,201.5C 113.407,205.108 113.24,208.775 114,212.5C 114.202,210.744 114.702,209.078 115.5,207.5C 116.107,207.624 116.44,207.957 116.5,208.5C 114.952,214.718 116.952,219.051 122.5,221.5C 122.672,222.492 122.338,223.158 121.5,223.5C 120.887,232.716 120.054,242.049 119,251.5C 118.667,241.833 118.333,232.167 118,222.5C 117.5,233.495 117.333,244.495 117.5,255.5C 116.167,255.5 114.833,255.5 113.5,255.5C 113.667,243.162 113.5,230.829 113,218.5C 112.667,219.833 112.333,221.167 112,222.5C 111.667,220.167 111.333,217.833 111,215.5C 110.833,216.833 110.667,218.167 110.5,219.5C 112.483,230.754 112.983,242.088 112,253.5C 111.667,254.167 111.333,254.833 111,255.5C 110.501,247.488 110.667,239.488 111.5,231.5C 110.5,231.5 109.5,231.5 108.5,231.5C 108.491,223.432 107.824,215.432 106.5,207.5C 105.5,207.5 104.5,207.5 103.5,207.5C 103.664,210.187 103.497,212.854 103,215.5C 102.667,210.167 102.333,204.833 102,199.5C 101.333,231.5 100.667,231.5 100,199.5C 99.3333,231.5 98.6667,231.5 98,199.5C 97.1671,231.493 96.6671,231.493 96.5,199.5C 95.1667,199.5 93.8333,199.5 92.5,199.5C 92.5,196.833 92.5,194.167 92.5,191.5C 91.5,191.5 90.5,191.5 89.5,191.5C 89.3349,184.808 89.6683,178.141 90.5,171.5C 90.1596,167.442 89.4929,163.442 88.5,159.5C 87.5013,170.146 87.168,180.813 87.5,191.5C 86.5,191.5 85.5,191.5 84.5,191.5C 84.5,183.5 84.5,175.5 84.5,167.5C 83.5,167.5 82.5,167.5 81.5,167.5C 81.8134,164.753 81.48,162.086 80.5,159.5C 79.3363,180.802 78.5029,180.802 78,159.5C 77.3333,180.833 76.6667,180.833 76,159.5C 75.3333,180.833 74.6667,180.833 74,159.5C 73,180.833 72,180.833 71,159.5C 70.3333,172.833 70.3333,186.167 71,199.5C 71.3333,196.833 71.6667,194.167 72,191.5C 72.4997,210.177 72.1664,228.844 71,247.5C 70.5006,242.177 70.334,236.844 70.5,231.5C 69.5,231.5 68.5,231.5 67.5,231.5C 67.1586,252.792 66.1586,252.792 64.5,231.5C 63.6816,234.107 63.1816,236.774 63,239.5C 62.1737,231.527 61.6737,231.527 61.5,239.5C 59.4352,239.483 57.4352,239.15 55.5,238.5C 60.8185,232.913 60.8185,227.246 55.5,221.5C 58.9973,221.472 62.664,221.306 66.5,221C 71.9387,216.673 72.6054,211.84 68.5,206.5C 68.8859,188.133 68.3859,169.799 67,151.5C 66.5281,168.107 66.3615,184.44 66.5,200.5C 66.136,183.343 65.136,166.343 63.5,149.5C 65.1045,147.821 65.7711,145.821 65.5,143.5C 68.1458,142.35 69.9791,140.35 71,137.5C 71.7774,128.29 67.6107,124.79 58.5,127C 57.2396,128.113 56.073,128.28 55,127.5C 56.128,125.641 57.4613,123.641 59,121.5C 60.6893,116.177 59.1893,112.177 54.5,109.5C 54.3784,108.197 54.3784,106.864 54.5,105.5C 50.3149,107.438 46.1483,107.771 42,106.5C 41.5756,110.19 40.7423,110.357 39.5,107C 40.8213,105.455 40.4879,104.289 38.5,103.5C 37.8333,109.5 37.1667,115.5 36.5,121.5C 35.787,119.565 34.787,119.232 33.5,120.5C 33.5,106.833 33.5,93.1667 33.5,79.5C 34.675,79.719 35.675,79.3857 36.5,78.5C 35.4717,76.6385 33.9717,75.3052 32,74.5C 29.544,76.3213 26.7107,76.988 23.5,76.5C 23.665,73.1501 23.4983,69.8168 23,66.5C 19.9419,70.5199 18.1086,70.1866 17.5,65.5C 18.3764,65.6309 19.0431,65.2975 19.5,64.5C 18.4798,62.5675 18.3131,60.5675 19,58.5C 21.6206,61.1402 24.1206,61.1402 26.5,58.5C 27.7206,57.9717 28.8873,57.305 30,56.5C 32.0338,58.4418 34.2005,60.2752 36.5,62C 35.8333,62.3333 35.1667,62.6667 34.5,63C 37.2344,63.9982 38.9011,65.8315 39.5,68.5C 40.552,68.6495 41.552,68.4828 42.5,68C 40.5946,67.1739 40.2612,66.0072 41.5,64.5C 42.2749,66.3022 43.2749,66.9689 44.5,66.5C 47.6843,68.4136 51.351,69.0803 55.5,68.5C 54.1145,64.4567 53.1145,60.29 52.5,56C 52.8333,54.8333 53.1667,53.6667 53.5,52.5C 57.2377,58.6466 62.2377,59.98 68.5,56.5 Z"/></g>
<g><path style="opacity:1" fill="#2e2b2a" d="M 145.5,113.5 C 145.5,113.833 145.5,114.167 145.5,114.5C 145.777,119.34 144.111,123.34 140.5,126.5C 145.118,126.035 149.784,126.535 154.5,128C 158.758,133.03 158.424,137.697 153.5,142C 146.856,144.679 141.856,142.845 138.5,136.5C 137.78,142.049 138.78,147.382 141.5,152.5C 138.232,153.487 134.898,153.82 131.5,153.5C 132.556,149.832 133.722,146.165 135,142.5C 135.808,140.421 135.641,138.421 134.5,136.5C 131.765,142.7 127.099,144.866 120.5,143C 113.929,137.486 113.929,132.153 120.5,127C 124.091,126.211 127.591,126.378 131,127.5C 129.489,124.266 128.322,120.766 127.5,117C 127.667,115.833 127.833,114.667 128,113.5C 133.707,106.947 139.541,106.947 145.5,113.5 Z"/></g>
<g><path style="opacity:1" fill="#9d9d9d" d="M 141.5,195.5 C 138.167,194.167 134.833,194.167 131.5,195.5C 130.957,195.44 130.624,195.107 130.5,194.5C 134.5,193.167 138.5,193.167 142.5,194.5C 142.376,195.107 142.043,195.44 141.5,195.5 Z"/></g>
<g><path style="opacity:1" fill="#313132" d="M 177.5,208.5 C 175.669,209.052 174.003,209.052 172.5,208.5C 172.167,208.833 171.833,209.167 171.5,209.5C 174.546,213.195 173.713,215.528 169,216.5C 165.707,215.862 164.707,213.862 166,210.5C 166.5,210 167,209.5 167.5,209C 161.894,210.226 159.894,208.06 161.5,202.5C 164.454,200.853 166.62,201.519 168,204.5C 168.758,202.231 168.591,200.064 167.5,198C 168.833,197.333 170.167,197.333 171.5,198C 168.166,204.182 169,205.349 174,201.5C 177.878,202.589 179.045,204.923 177.5,208.5 Z"/></g>
<g><path style="opacity:1" fill="#2f2c2b" d="M 131.5,195.5 C 134.833,194.167 138.167,194.167 141.5,195.5C 138.627,200.544 137.627,205.877 138.5,211.5C 139.584,208.912 141.251,206.745 143.5,205C 150.733,202.954 155.4,205.621 157.5,213C 155.882,219.979 151.549,222.646 144.5,221C 143.333,219.216 142.333,219.216 141.5,221C 145.713,225.181 146.546,230.014 144,235.5C 139.994,240.166 135.494,240.666 130.5,237C 126.053,231.019 126.719,225.686 132.5,221C 129.2,221.046 125.866,221.212 122.5,221.5C 116.952,219.051 114.952,214.718 116.5,208.5C 117.962,207.542 119.295,206.376 120.5,205C 126.581,203.142 131.081,204.975 134,210.5C 135.015,205.08 134.181,200.08 131.5,195.5 Z"/></g>
<g><path style="opacity:1" fill="#2c2a2a" d="M 68.5,206.5 C 72.6054,211.84 71.9387,216.673 66.5,221C 62.664,221.306 58.9973,221.472 55.5,221.5C 60.8185,227.246 60.8185,232.913 55.5,238.5C 55.1667,238.5 54.8333,238.5 54.5,238.5C 52.2625,239.537 49.9291,239.703 47.5,239C 39.8407,233.529 39.5073,227.529 46.5,221C 42.871,221.11 39.2044,221.276 35.5,221.5C 29.7501,217.079 29.0834,211.913 33.5,206C 40.5245,202.686 45.6912,204.52 49,211.5C 50.017,205.711 48.8503,200.378 45.5,195.5C 48.8333,194.167 52.1667,194.167 55.5,195.5C 52.6422,200.223 51.9755,205.223 53.5,210.5C 57.1721,204.213 62.1721,202.88 68.5,206.5 Z"/></g>
<g><path style="opacity:1" fill="#edeef1" d="M 121.5,223.5 C 121.334,231.84 121.5,240.173 122,248.5C 124.027,252.605 126.027,252.939 128,249.5C 128.495,251.473 128.662,253.473 128.5,255.5C 130.5,255.5 132.5,255.5 134.5,255.5C 134.5,253.5 134.5,251.5 134.5,249.5C 137.5,249.5 140.5,249.5 143.5,249.5C 143.338,251.527 143.505,253.527 144,255.5C 144.667,250.167 145.333,244.833 146,239.5C 146.333,242.167 146.667,244.833 147,247.5C 147.667,236.833 148.333,236.833 149,247.5C 149.76,243.775 149.593,240.108 148.5,236.5C 149.098,235.205 149.598,233.872 150,232.5C 150.333,240.167 150.667,247.833 151,255.5C 151.333,250.167 151.667,244.833 152,239.5C 152.503,260.802 153.336,260.802 154.5,239.5C 155.994,260.802 157.161,260.802 158,239.5C 158.171,244.864 158.671,250.198 159.5,255.5C 160.67,253.575 160.837,251.242 160,248.5C 161.019,249.687 162.186,250.687 163.5,251.5C 166.311,250.92 168.977,250.254 171.5,249.5C 176.776,246.586 179.11,241.919 178.5,235.5C 178.363,233.117 178.029,230.783 177.5,228.5C 178.506,224.47 181.173,222.803 185.5,223.5C 185.5,235.167 185.5,246.833 185.5,258.5C 184.251,260.136 182.584,261.303 180.5,262C 122.166,262.19 63.8327,261.857 5.5,261C 3.18107,259.853 1.84774,258.019 1.5,255.5C 2.55198,255.351 3.55198,255.517 4.5,256C 3.11179,256.889 3.27846,257.389 5,257.5C 10.6479,255.649 16.4813,254.982 22.5,255.5C 22.8333,252.833 23.1667,250.167 23.5,247.5C 26.1667,247.5 28.8333,247.5 31.5,247.5C 31.3359,250.187 31.5026,252.854 32,255.5C 33.2323,250.279 33.8989,244.946 34,239.5C 34.3333,244.833 34.6667,250.167 35,255.5C 35.6667,244.833 36.3333,244.833 37,255.5C 37.6667,244.833 38.3333,244.833 39,255.5C 39.2492,254.376 39.7492,253.376 40.5,252.5C 42.2585,254.738 44.5918,255.738 47.5,255.5C 47.5,254.5 47.5,253.5 47.5,252.5C 50.1667,252.5 52.8333,252.5 55.5,252.5C 55.7711,250.179 55.1045,248.179 53.5,246.5C 54.3928,243.916 54.7261,241.249 54.5,238.5C 54.8333,238.5 55.1667,238.5 55.5,238.5C 57.4352,239.15 59.4352,239.483 61.5,239.5C 61.6737,231.527 62.1737,231.527 63,239.5C 63.1816,236.774 63.6816,234.107 64.5,231.5C 66.1586,252.792 67.1586,252.792 67.5,231.5C 68.5,231.5 69.5,231.5 70.5,231.5C 70.334,236.844 70.5006,242.177 71,247.5C 72.1664,228.844 72.4997,210.177 72,191.5C 71.6667,194.167 71.3333,196.833 71,199.5C 70.3333,186.167 70.3333,172.833 71,159.5C 72,180.833 73,180.833 74,159.5C 74.6667,180.833 75.3333,180.833 76,159.5C 76.6667,180.833 77.3333,180.833 78,159.5C 78.5029,180.802 79.3363,180.802 80.5,159.5C 81.48,162.086 81.8134,164.753 81.5,167.5C 82.5,167.5 83.5,167.5 84.5,167.5C 84.5,175.5 84.5,183.5 84.5,191.5C 85.5,191.5 86.5,191.5 87.5,191.5C 87.168,180.813 87.5013,170.146 88.5,159.5C 89.4929,163.442 90.1596,167.442 90.5,171.5C 89.6683,178.141 89.3349,184.808 89.5,191.5C 90.5,191.5 91.5,191.5 92.5,191.5C 92.5,194.167 92.5,196.833 92.5,199.5C 93.8333,199.5 95.1667,199.5 96.5,199.5C 96.6671,231.493 97.1671,231.493 98,199.5C 98.6667,231.5 99.3333,231.5 100,199.5C 100.667,231.5 101.333,231.5 102,199.5C 102.333,204.833 102.667,210.167 103,215.5C 103.497,212.854 103.664,210.187 103.5,207.5C 104.5,207.5 105.5,207.5 106.5,207.5C 107.824,215.432 108.491,223.432 108.5,231.5C 109.5,231.5 110.5,231.5 111.5,231.5C 110.667,239.488 110.501,247.488 111,255.5C 111.333,254.833 111.667,254.167 112,253.5C 112.983,242.088 112.483,230.754 110.5,219.5C 110.667,218.167 110.833,216.833 111,215.5C 111.333,217.833 111.667,220.167 112,222.5C 112.333,221.167 112.667,219.833 113,218.5C 113.5,230.829 113.667,243.162 113.5,255.5C 114.833,255.5 116.167,255.5 117.5,255.5C 117.333,244.495 117.5,233.495 118,222.5C 118.333,232.167 118.667,241.833 119,251.5C 120.054,242.049 120.887,232.716 121.5,223.5 Z"/></g>
<g><path style="opacity:1" fill="#333234" d="M 172.5,223.5 C 174.527,224.861 176.194,226.527 177.5,228.5C 178.029,230.783 178.363,233.117 178.5,235.5C 179.11,241.919 176.776,246.586 171.5,249.5C 166.689,250.26 163.022,248.593 160.5,244.5C 162.825,242.18 164.825,242.68 166.5,246C 172.621,246.546 175.454,243.712 175,237.5C 171.817,239.523 168.317,240.023 164.5,239C 162.951,237.786 161.785,236.286 161,234.5C 159.803,225.819 163.636,222.152 172.5,223.5 Z"/></g>
<g><path style="opacity:1" fill="#e3e3e3" d="M 165.5,226.5 C 171.337,225.518 174.17,227.851 174,233.5C 170.612,237.403 167.279,237.403 164,233.5C 163.391,230.935 163.891,228.601 165.5,226.5 Z"/></g>
</svg>
