<?xml version="1.0" standalone="no"?>
<!DOCTYPE svg PUBLIC "-//W3C//DTD SVG 20010904//EN"
 "http://www.w3.org/TR/2001/REC-SVG-20010904/DTD/svg10.dtd">
<svg version="1.0" xmlns="http://www.w3.org/2000/svg"
 width="660.000000pt" height="825.000000pt" viewBox="0 0 660.000000 825.000000"
 preserveAspectRatio="xMidYMid meet">

<g transform="translate(0.000000,825.000000) scale(0.100000,-0.100000)"
fill="#000000" stroke="none">
<path d="M240 8236 c-90 -24 -172 -95 -214 -185 l-21 -46 0 -3880 0 -3880 28
-56 c32 -66 99 -132 165 -162 l47 -22 3055 0 3055 0 47 22 c66 30 133 96 165
162 l28 56 0 3880 0 3880 -22 47 c-30 66 -96 133 -162 165 l-56 28 -3035 2
c-2376 1 -3045 -1 -3080 -11z m6135 -75 c60 -27 101 -66 129 -123 l26 -52 0
-3860 0 -3861 -24 -51 c-25 -53 -80 -104 -140 -129 -31 -13 -407 -15 -3068
-15 -2914 0 -3035 1 -3073 19 -61 28 -105 70 -131 126 l-24 50 0 3860 c0 3714
1 3862 19 3900 27 60 66 101 123 129 l52 26 3035 0 c2916 0 3038 -1 3076 -19z"/>
<path d="M599 7394 c-137 -199 -163 -244 -167 -280 l-4 -44 146 0 145 0 3 -87
3 -88 55 0 55 0 1 85 2 85 51 3 51 3 0 45 c0 35 -4 44 -17 45 -25 2 -66 6 -80
8 -10 1 -13 54 -13 231 l0 230 -34 0 c-33 0 -38 -6 -197 -236z m117 -220 c-3
-9 -32 -13 -93 -12 -48 0 -91 2 -95 4 -3 2 37 67 90 144 l97 141 3 -133 c1
-72 0 -138 -2 -144z"/>
<path d="M1495 7094 c-165 -202 -301 -370 -303 -375 -2 -4 33 -54 78 -111 44
-57 171 -218 280 -358 110 -140 211 -268 225 -285 l25 -30 17 22 c10 11 148
195 306 407 l289 385 -303 353 c-166 194 -305 354 -308 356 -4 1 -141 -163
-306 -364z"/>
<path d="M4665 7338 c-324 -396 -505 -619 -505 -623 0 -2 82 -109 182 -237
100 -128 236 -302 301 -386 66 -84 123 -152 127 -150 5 2 144 184 310 405
l302 402 -303 353 c-166 194 -305 354 -309 356 -3 1 -50 -53 -105 -120z"/>
<path d="M580 6689 c-63 -77 -119 -146 -124 -153 -6 -8 27 -58 104 -157 62
-79 120 -152 129 -162 17 -17 23 -10 145 154 l128 171 -39 42 c-22 22 -79 87
-127 144 -49 56 -91 102 -95 101 -3 0 -58 -63 -121 -140z"/>
<path d="M1709 2092 c-48 -59 -181 -222 -296 -363 -115 -140 -213 -261 -217
-267 -4 -8 51 -87 146 -208 84 -108 178 -229 208 -268 30 -39 59 -76 65 -82 5
-6 48 -61 95 -122 47 -61 87 -112 90 -112 3 0 17 17 30 38 14 20 147 200 296
398 149 199 274 366 277 371 7 11 5 14 -193 244 -74 86 -171 198 -215 250 -44
52 -87 102 -97 112 -9 11 -34 41 -55 68 -21 26 -40 48 -43 48 -3 0 -44 -48
-91 -107z"/>
<path d="M4675 2088 c-88 -108 -137 -168 -340 -418 -55 -67 -110 -134 -123
-149 -52 -59 -56 -68 -36 -94 11 -14 48 -62 84 -108 35 -46 70 -91 77 -99 7
-8 92 -116 188 -240 96 -124 191 -244 210 -268 l34 -43 305 407 c264 352 304
409 293 424 -7 9 -87 104 -179 211 -92 107 -223 260 -293 342 -69 81 -127 147
-128 147 -1 -1 -42 -51 -92 -112z"/>
<path d="M5724 1814 c-65 -80 -120 -150 -122 -154 -3 -8 249 -334 253 -328 1
2 57 76 123 165 67 89 122 167 122 173 0 13 -238 290 -249 290 -4 0 -62 -66
-127 -146z"/>
<path d="M5720 1146 l0 -85 -52 -3 -53 -3 0 -45 0 -45 52 -3 53 -3 2 -232 3
-232 31 -3 c30 -3 36 4 164 190 74 106 149 214 167 240 25 37 33 58 33 93 l0
45 -145 0 -145 0 0 85 0 85 -55 0 -55 0 0 -84z m308 -194 c-9 -22 -184 -272
-190 -272 -5 0 -8 63 -8 140 l0 140 101 0 c55 0 99 -4 97 -8z"/>
</g>
</svg>
