<?xml version="1.0" standalone="no"?>
<!DOCTYPE svg PUBLIC "-//W3C//DTD SVG 20010904//EN"
 "http://www.w3.org/TR/2001/REC-SVG-20010904/DTD/svg10.dtd">
<svg version="1.0" xmlns="http://www.w3.org/2000/svg"
 width="660.000000pt" height="825.000000pt" viewBox="0 0 660.000000 825.000000"
 preserveAspectRatio="xMidYMid meet">

<g transform="translate(0.000000,825.000000) scale(0.100000,-0.100000)"
fill="#000000" stroke="none">
<path d="M240 8236 c-90 -24 -172 -95 -214 -185 l-21 -46 0 -3880 0 -3880 28
-56 c32 -66 99 -132 165 -162 l47 -22 3055 0 3055 0 58 29 c68 35 130 98 160
164 l22 47 0 3880 0 3880 -22 47 c-30 66 -96 133 -162 165 l-56 28 -3035 2
c-2377 1 -3045 -1 -3080 -11z m6135 -75 c60 -27 101 -66 129 -123 l26 -52 0
-3860 0 -3861 -24 -50 c-26 -56 -70 -98 -131 -126 -38 -18 -159 -19 -3075 -19
-2916 0 -3037 1 -3075 19 -61 28 -105 70 -131 126 l-24 50 0 3860 c0 3714 1
3862 19 3900 27 60 66 101 123 129 l52 26 3035 0 c2916 0 3038 -1 3076 -19z"/>
<path d="M603 7614 c-59 -21 -118 -89 -138 -159 -18 -62 -19 -60 11 -69 18 -6
25 0 43 37 28 58 60 86 105 94 47 7 107 -19 129 -57 25 -42 22 -124 -7 -185
-31 -66 -51 -90 -181 -230 -60 -64 -111 -126 -113 -136 -3 -19 5 -19 218 -17
l222 3 30 74 c16 41 27 80 24 88 -9 22 -30 15 -59 -22 l-28 -35 -125 0 -126 0
100 105 c114 120 156 179 177 249 27 89 12 151 -49 212 -62 62 -144 79 -233
48z"/>
<path d="M3229 7433 c-49 -73 -122 -164 -253 -317 -214 -251 -291 -370 -321
-498 -46 -197 17 -398 146 -463 129 -66 271 -29 330 87 11 21 25 76 31 121 13
101 15 110 28 102 14 -9 12 -146 -4 -235 -9 -52 -30 -108 -65 -178 -28 -56
-51 -108 -51 -117 0 -13 28 -15 201 -15 l200 0 -7 23 c-4 12 -28 65 -54 117
-27 52 -53 120 -59 150 -25 131 -22 285 5 258 4 -4 10 -48 15 -97 14 -148 52
-210 148 -238 108 -31 242 5 312 84 68 78 107 213 93 327 -12 107 -52 197
-138 315 -39 54 -70 90 -276 321 -96 108 -216 259 -227 288 -9 21 -21 13 -54
-35z"/>
<path d="M690 6843 c0 -10 -122 -164 -172 -218 -72 -77 -100 -201 -62 -281 30
-62 116 -84 168 -43 33 26 33 12 1 -51 l-25 -50 95 0 c52 0 95 2 95 5 0 3 -12
29 -26 57 l-26 52 26 -17 c32 -21 98 -22 137 -1 38 19 68 83 69 143 0 58 -27
111 -95 191 -30 36 -83 99 -116 140 -75 92 -69 85 -69 73z"/>
<path d="M3062 2203 c2 -5 28 -55 56 -113 59 -118 82 -215 82 -341 0 -60 -3
-79 -14 -79 -9 0 -15 21 -19 73 -16 182 -93 267 -243 267 -73 0 -116 -16 -168
-61 -55 -48 -80 -95 -101 -181 -42 -178 3 -341 145 -532 46 -63 197 -244 220
-266 20 -19 145 -178 185 -235 27 -38 51 -73 55 -78 3 -4 43 41 87 100 45 60
149 184 232 276 243 269 316 383 341 531 23 130 -19 285 -97 361 -59 57 -116
79 -213 83 -74 3 -91 0 -130 -20 -64 -33 -100 -107 -109 -222 -7 -88 -15 -111
-32 -86 -13 19 -1 197 17 267 8 29 36 98 64 153 27 55 50 102 50 105 0 3 -93
5 -206 5 -113 0 -204 -3 -202 -7z"/>
<path d="M5750 1965 c0 -3 11 -28 25 -55 30 -59 31 -69 6 -46 -29 26 -91 31
-130 11 -41 -21 -64 -73 -64 -146 0 -70 30 -128 126 -242 38 -45 83 -101 100
-125 l31 -43 21 28 c11 15 62 77 114 138 114 132 146 195 138 267 -4 28 -13
61 -22 75 -40 60 -129 81 -179 42 -32 -25 -32 -21 -1 41 14 27 25 52 25 55 0
3 -43 5 -95 5 -52 0 -95 -2 -95 -5z"/>
<path d="M5661 1223 c-24 -45 -60 -146 -55 -154 10 -17 32 -9 67 26 l35 35
116 0 c64 0 116 -3 116 -8 0 -4 -34 -41 -76 -82 -158 -155 -210 -249 -202
-361 5 -71 40 -122 108 -156 126 -65 272 3 320 149 20 60 18 68 -14 68 -17 0
-28 -10 -41 -41 -40 -87 -128 -117 -202 -66 -56 38 -66 99 -34 193 25 70 57
112 194 258 62 66 112 127 112 135 0 14 -28 16 -217 19 -199 2 -218 1 -227
-15z"/>
</g>
</svg>
